<svg width="24" height="24" version="1.1" xmlns="http://www.w3.org/2000/svg">
 <defs>
  <style id="current-color-scheme" type="text/css">.ColorScheme-Text { color:#dfdfdf; } .ColorScheme-Highlight { color:#4285f4; } .ColorScheme-NeutralText { color:#ff9800; } .ColorScheme-PositiveText { color:#4caf50; } .ColorScheme-NegativeText { color:#f44336; }</style>
 </defs>
 <path class="ColorScheme-Text" d="m15 15v1c0 0.28 0.1 0.54 0.28 0.72l0.78 0.78-0.78 0.78c-0.18 0.19-0.28 0.45-0.28 0.72v1h1c0.28 0 0.54-0.1 0.72-0.28l0.78-0.78 0.78 0.78c0.18 0.18 0.45 0.28 0.72 0.28h1v-1c0-0.27-0.1-0.53-0.28-0.72l-0.78-0.78 0.78-0.78c0.18-0.18 0.28-0.44 0.28-0.72v-1h-1c-0.27 0-0.54 0.1-0.72 0.28l-0.78 0.79-0.78-0.79c-0.18-0.18-0.44-0.28-0.72-0.28z" fill="#dfdfdf"/>
 <path d="m12 5c-3.0506 0-5.9194 1.0732-8 3l8 11 2.0195-2.7773c-0.0076-0.07424-0.01953-0.1481-0.01953-0.22266v-2h1.6367l4.3633-6c-2.081-1.9269-4.949-3-8-3zm0 1c1.108 0 2 0.91135 2 2.0312v0.96875h1v4h-6v-4h1v-0.96875c0-1.1204 0.892-2.0312 2-2.0312z" fill="#dfdfdf" opacity=".35"/>
 <path d="m12 7c0.554 0 1 0.4424 1 1v1h-2v-1c0-0.5576 0.446-1 1-1z" color="#dfdfdf" fill="#dfdfdf" opacity=".3"/>
</svg>
