<svg width="20" height="20" version="1.1" viewBox="0 0 20 20" xmlns="http://www.w3.org/2000/svg">
<path d="m4 5s-2 0-2 2v8c0 2 2 2 2 2h11s2 0 2-2v-8c0-2-2-2-2-2zm0.25 2h1.5c0.14 0 0.25 0.11 0.25 0.25v1.5c0 0.14-0.11 0.25-0.25 0.25h-1.5c-0.14 0-0.25-0.11-0.25-0.25v-1.5c0-0.14 0.11-0.25 0.25-0.25zm3 0h1.5c0.14 0 0.25 0.11 0.25 0.25v1.5c0 0.14-0.11 0.25-0.25 0.25h-1.5c-0.14 0-0.25-0.11-0.25-0.25v-1.5c0-0.14 0.11-0.25 0.25-0.25zm3 0h1.5c0.14 0 0.25 0.11 0.25 0.25v1.5c0 0.14-0.11 0.25-0.25 0.25h-1.5c-0.14 0-0.25-0.11-0.25-0.25v-1.5c0-0.14 0.11-0.25 0.25-0.25zm3 0h1.5c0.14 0 0.25 0.11 0.25 0.25v1.5c0 0.14-0.11 0.25-0.25 0.25h-1.5c-0.14 0-0.25-0.11-0.25-0.25v-1.5c0-0.14 0.11-0.25 0.25-0.25zm-9 3h1.5c0.14 0 0.25 0.11 0.25 0.25v1.5c0 0.14-0.11 0.25-0.25 0.25h-1.5c-0.14 0-0.25-0.11-0.25-0.25v-1.5c0-0.14 0.11-0.25 0.25-0.25zm3 0h1.5c0.14 0 0.25 0.11 0.25 0.25v1.5c0 0.14-0.11 0.25-0.25 0.25h-1.5c-0.14 0-0.25-0.11-0.25-0.25v-1.5c0-0.14 0.11-0.25 0.25-0.25zm3 0h1.5c0.14 0 0.25 0.11 0.25 0.25v1.5c0 0.14-0.11 0.25-0.25 0.25h-1.5c-0.14 0-0.25-0.11-0.25-0.25v-1.5c0-0.14 0.11-0.25 0.25-0.25zm3 0h1.5c0.14 0 0.25 0.11 0.25 0.25v1.5c0 0.14-0.11 0.25-0.25 0.25h-1.5c-0.14 0-0.25-0.11-0.25-0.25v-1.5c0-0.14 0.11-0.25 0.25-0.25zm-7 3h6.5c0.14 0 0.25 0.11 0.25 0.25v1.5c0 0.14-0.11 0.25-0.25 0.25h-6.5c-0.14 0-0.25-0.11-0.25-0.25v-1.5c0-0.14 0.11-0.25 0.25-0.25z" fill="#fff"/>
</svg>
