<svg width="20" height="20" version="1.1" viewBox="0 0 20 20" xmlns="http://www.w3.org/2000/svg">
<path d="m4 3c-1.108 0-2 0.892-2 2v10c0 1.108 0.892 2 2 2h12c1.108 0 2-0.892 2-2v-10c0-1.108-0.892-2-2-2zm0 2h4c0.666 0.02 1.168 0.8395 0.877 1.4395l-1.375 2.7812c0.354 0.11 0.7477 0.1895 0.9668 0.4395 0.3329 0.36 0.5312 0.8098 0.5312 1.3398v2c0 1.11-0.907 2-2 2h-3v-2h3v-2h-1c-0.666-0.02-1.165-0.8395-0.873-1.4395l1.25-2.5605h-2.377zm8 0h2c2 0 2 2 2 2v1h-2v-1h-2v6h2v-2h-1v-2h3v4s0 2-2 2h-2s-2 0-2-2v-6c0-2 2-2 2-2z" fill="#fff"/>
</svg>
