<svg width="20" height="20" version="1.1" viewBox="0 0 20 20" xmlns="http://www.w3.org/2000/svg">
<g fill="#fff">
<path class="ColorScheme-Text" d="m14.969 11.002c-1.108 0-2 0.911-2 2.031v0.969h-1v4h6v-4h-1v-0.969c0-1.12-0.892-2.031-2-2.031zm0 1c0.554 0 1 0.442 1 1v1h-2v-1c0-0.558 0.446-1 1-1z"/>
<path class="ColorScheme-Text" d="m9.998 4.002 2e-3 2e-3c-3.0341 0-5.7657 1.2698-8.031 3.0136l8.031 8.9804 0.969-1.096v-1.9h1.014c0.019-1.635 1.342-3 2.986-3 0.104 0 0.203 0.021 0.305 0.031l2.695-3.0466c-2.258-1.7211-4.96-2.9844-7.971-2.9844z" opacity=".35"/>
<path class="ColorScheme-Text" d="m10 7c-2.2426 0-4.5558 0.713-6.2302 2.002l6.2302 7 0.969-1.1v-1.9h1.014c0.019-1.635 1.342-3 2.986-3 0.1 0 0.194 0.021 0.291 0.031l0.908-1.031c-1.667-1.2726-3.94-1.998-6.166-1.998z"/>
</g>
</svg>
