<svg width="20" height="20" version="1.1" viewBox="0 0 20 20" xmlns="http://www.w3.org/2000/svg">
<g transform="translate(19.2,5.6)">
<path class="ColorScheme-Text" d="m-9.169-1.6c-3.0341 0-5.7657 1.2711-8.031 3.0156l8.031 8.9844 0.969-1.094v-1.906h1.014c0.019-1.635 1.342-3 2.986-3 0.108 0 0.21 0.022 0.314 0.033l2.686-3.033c-2.257-1.7252-4.958-3-7.969-3z" opacity=".35"/>
<path class="ColorScheme-Text" d="m-9.2 5.4c-2 0-3.5508 1-3.5508 1l3.5508 4c0.255-0.301 0.653-0.743 1-1.137v-1.863h1.014c6e-3 -0.556 0.172-1.075 0.441-1.525-0.632-0.242-1.489-0.475-2.455-0.475z"/>
<path class="ColorScheme-Text" d="m-4.2 5.4c-1.108 0-2 0.911-2 2.031v0.969h-1v4h6v-4h-1v-0.969c0-1.12-0.892-2.031-2-2.031zm0 1c0.554 0 1 0.442 1 1v1h-2v-1c0-0.558 0.446-1 1-1z"/>
</g>
</svg>
