<svg width="20" height="20" version="1.1" viewBox="0 0 20 20" xmlns="http://www.w3.org/2000/svg">
<path d="m9.998 3.998 2e-3 2e-3c-3.0341 0-5.7657 1.2693-8.031 3.0136l8.031 8.9844 0.969-1.096v-1.904h1.014c0.019-1.635 1.342-3 2.986-3 0.105 0 0.204 0.02 0.307 0.031l2.693-3.0466c-2.258-1.7216-4.96-2.9844-7.971-2.9844z" fill="#fff"/>
<path d="m14.969 10.998c-1.108 0-2 0.91125-2 2.0312v0.96875h-1v4h6v-4h-1v-0.96875c0-1.12-0.892-2.0312-2-2.0312zm0 1c0.554 0 1 0.442 1 1v1h-2v-1c0-0.558 0.446-1 1-1z" fill="#fff"/>
</svg>
