<svg width="32" height="32" version="1" xmlns="http://www.w3.org/2000/svg">
 <rect x="4" y="1" width="24" height="17" rx="1.275" ry="1.275" fill="#5895dc"/>
 <rect x="4" y="3" width="24" height="17" rx="1.275" ry="1.275" opacity=".1"/>
 <rect x="4" y="4" width="24" height="17" rx="1.275" ry="1.275" fill="#89e058"/>
 <rect x="4" y="6" width="24" height="17" rx="1.275" ry="1.275" opacity=".1"/>
 <rect x="4" y="7" width="24" height="17" rx="1.275" ry="1.275" fill="#ffcd54"/>
 <rect x="2" y="11" width="28" height="20" rx="1.5" ry="1.5" opacity=".2"/>
 <rect x="2" y="10" width="28" height="20" rx="1.5" ry="1.5" fill="#57b8ec"/>
 <rect x="11" y="19" width="10" height="3" rx="1" ry="1" opacity=".2"/>
 <rect x="11" y="18" width="10" height="3" rx="1" ry="1" fill="#ececec"/>
 <path d="M 5.2754,1 C 4.569,1 4,1.569 4,2.2754 v 1 C 4,2.569 4.569,2 5.2754,2 H 26.725 C 27.431,2 28,2.569 28,3.2754 v -1 C 28,1.569 27.431,1 26.725,1 Z" fill="#fff" opacity=".1"/>
 <path d="m5.2754 3.9996c-0.7064 0-1.2754 0.569-1.2754 1.2754v1c0-0.7064 0.569-1.2754 1.2754-1.2754h21.45c0.706 0 1.275 0.569 1.275 1.2754v-1c0-0.7064-0.569-1.2754-1.275-1.2754z" fill="#fff" opacity=".1"/>
 <path d="m5.2754 6.9996c-0.7064 0-1.2754 0.569-1.2754 1.2754v1c0-0.7064 0.569-1.2754 1.2754-1.2754h21.45c0.706 0 1.275 0.569 1.275 1.2754v-1c0-0.7064-0.569-1.2754-1.275-1.2754z" fill="#fff" opacity=".1"/>
 <circle cx="24" cy="24" r="8" opacity=".2"/>
 <circle cx="24" cy="23" r="8" fill="#6ec149"/>
 <path d="m23 19-0.0882 1.0536a3.1429 3.1429 0 0 0-0.91852 0.53126l-0.95759-0.4509-1 1.7321 0.86941 0.6038a3.1429 3.1429 0 0 0-0.048 0.53013 3.1429 3.1429 0 0 0 0.0457 0.53237l-0.86719 0.60156 1 1.7321 0.95536-0.44978a3.1429 3.1429 0 0 0 0.92075 0.5279l0.0882 1.0558h2l0.0882-1.0536a3.1429 3.1429 0 0 0 0.91854-0.53126l0.95758 0.4509 1-1.7321-0.86942-0.6038a3.1429 3.1429 0 0 0 0.048-0.53013 3.1429 3.1429 0 0 0-0.0457-0.53237l0.86719-0.60156-1-1.7321-0.95536 0.44978a3.1429 3.1429 0 0 0-0.921-0.528l-0.088-1.056h-2zm1 2.8572a1.1429 1.1429 0 0 1 1.143 1.143 1.1429 1.1429 0 0 1-1.143 1.143 1.1429 1.1429 0 0 1-1.143-1.143 1.1429 1.1429 0 0 1 1.143-1.143z" fill="#fff"/>
</svg>
