<svg width="32" height="32" version="1.1" xmlns="http://www.w3.org/2000/svg">
<path d="m3.4004 4c-0.7756 0-1.4004 0.6192-1.4004 1.3887v20.612h28v-20.611c0-0.7695-0.625-1.3887-1.4-1.3887h-25.2z" fill="#57b8ec"/>
<path d="m3.4 29c-0.7756 0-1.4-0.619-1.4-1.389v-1.611h28v1.6111c0 0.77-0.624 1.389-1.4 1.389z" fill="#106796"/>
<path d="m3.4004 4c-0.7756 0-1.4004 0.6192-1.4004 1.3887v1c0-0.7695 0.6248-1.3887 1.4004-1.3887h25.2c0.775 0 1.4 0.6192 1.4 1.3887v-1c0-0.7695-0.625-1.3887-1.4-1.3887h-25.2z" fill="#fff" opacity=".1"/>
<path d="m2 27.611v1c0 0.77 0.6248 1.389 1.4004 1.389h25.2c0.775 0 1.4-0.619 1.4-1.389v-1c0 0.77-0.625 1.389-1.4 1.389h-25.2c-0.7752 0-1.4-0.619-1.4-1.389z" opacity=".2"/>
</svg>
