<svg width="32" height="32" version="1" xmlns="http://www.w3.org/2000/svg">
<rect x="2" y="5" width="28" height="24" rx="1.5" ry="1.5" opacity=".2"/>
<rect x="2" y="4" width="28" height="24" rx="1.5" ry="1.5" fill="#57b8ec"/>
<rect x="18" y="8" width="14" height="10" rx=".6" ry=".6" opacity=".2"/>
<rect x="18" y="7" width="14" height="10" rx=".6" ry=".6" fill="#ebebeb"/>
<rect x="9" y="22" width="14" height="10" rx=".6" ry=".6" opacity=".2"/>
<rect x="9" y="21" width="14" height="10" rx=".6" ry=".6" fill="#ebebeb"/>
<rect y="8" width="14" height="10" rx=".6" ry=".6" opacity=".2"/>
<rect y="7" width="14" height="10" rx=".6" ry=".6" fill="#ebebeb"/>
<path d="m3.5 4c-0.831 0-1.5 0.669-1.5 1.5v1c0-0.831 0.669-1.5 1.5-1.5h25c0.831 0 1.5 0.669 1.5 1.5v-1c0-0.831-0.669-1.5-1.5-1.5h-25z" fill="#fff" opacity=".2"/>
</svg>
