<svg width="32" height="32" version="1.1" xmlns="http://www.w3.org/2000/svg">
<path d="m3.3998 29c-0.7756 0-1.4-0.6194-1.4-1.3889v-1.6111h28v1.6111c0 0.7695-0.6244 1.3889-1.4 1.3889z" fill="#106796"/>
<path d="m3.4004 4c-0.7756 0-1.4004 0.6192-1.4004 1.3887v20.612h28v-20.611c0-0.7695-0.625-1.3887-1.4-1.3887h-25.2z" fill="#57b8ec"/>
<path d="m3.4002 4c-0.7756 0-1.4004 0.6192-1.4004 1.3887v1c0-0.7695 0.6248-1.3887 1.4004-1.3887h25.2c0.775 0 1.4 0.6192 1.4 1.3887v-1c0-0.7695-0.625-1.3887-1.4-1.3887h-25.2z" fill="#fff" opacity=".1"/>
<rect x="10" y="13" width="12" height="8" rx=".75" ry=".667" opacity=".2"/>
<path d="m10 14v5.334c0 0.369 0.334 0.666 0.75 0.666h10.5c0.416 0 0.75-0.297 0.75-0.666v-5.334h-12z" fill="#fff"/>
<path d="m10.75 12h10.5c0.416 0 0.75 0.297 0.75 0.667v1.333h-12v-1.3333c0-0.36933 0.3345-0.66667 0.75-0.66667z" fill="#106796"/>
<rect x="3" y="18" width="3" height="3" rx=".375" ry=".375" opacity=".2"/>
<rect x="3" y="6" width="3" height="3" rx=".375" ry=".375" opacity=".2"/>
<rect x="3" y="5" width="3" height="3" rx=".375" ry=".375" fill="#fff"/>
<rect x="3" y="10" width="3" height="3" rx=".375" ry=".375" opacity=".2"/>
<rect x="3" y="9" width="3" height="3" rx=".375" ry=".375" fill="#fff"/>
<rect x="3" y="14" width="3" height="3" rx=".375" ry=".375" opacity=".2"/>
<rect x="3" y="13" width="3" height="3" rx=".375" ry=".375" fill="#fff"/>
<rect x="3" y="17" width="3" height="3" rx=".375" ry=".375" fill="#fff"/>
<path d="m2 27.611v1c0 0.77 0.6248 1.389 1.4004 1.389h25.2c0.775 0 1.4-0.619 1.4-1.389v-1c0 0.77-0.625 1.389-1.4 1.389h-25.2c-0.7752 0-1.4-0.619-1.4-1.389z" opacity=".2"/>
</svg>
