<svg width="32" height="32" version="1" xmlns="http://www.w3.org/2000/svg">
 <circle cx="16.5" cy="16.5" r="14.5" opacity=".2"/>
 <circle cx="16.5" cy="15.5" r="14.5" fill="#3f51b5"/>
 <path d="m16.5 1a14.5 14.5 0 0 0-14.5 14.5 14.5 14.5 0 0 0 0.021484 0.58008 14.5 14.5 0 0 1 14.479-14.08 14.5 14.5 0 0 1 14.479 13.92 14.5 14.5 0 0 0 0.02148-0.41992 14.5 14.5 0 0 0-14.5-14.5z" fill="#fff" opacity=".2"/>
 <path d="m21.5 6c-0.75683 0-1.5137 0.49047-1.5 1.4707v12.529h-3.5l5 6.5 5-6.5h-3.5v-12.529c0.013661-0.98023-0.74317-1.4707-1.5-1.4707zm-10 0.5-5 6.5h3.5v12.529c-0.02732 1.9605 3.0273 1.9605 3 0v-12.529h3.5z" opacity=".2"/>
 <path d="m21.5 5c-0.75683 0-1.5137 0.49047-1.5 1.4707v12.529h-3.5l5 6.5 5-6.5h-3.5v-12.529c0.013661-0.98023-0.74317-1.4707-1.5-1.4707zm-10 0.5-5 6.5h3.5v12.529c-0.02732 1.9605 3.0273 1.9605 3 0v-12.529h3.5l-5-6.5z" fill="#fff"/>
</svg>
