<svg width="32" height="32" version="1" xmlns="http://www.w3.org/2000/svg">
<rect transform="matrix(0,-1,-1,0,0,0)" x="-28" y="-30" width="22" height="28" rx="1.5" ry="1.5" opacity=".2"/>
<rect transform="matrix(0,-1,-1,0,0,0)" x="-27" y="-30" width="22" height="28" rx="1.5" ry="1.5" fill="#57b8ec"/>
<path transform="matrix(0,-1,-1,0,0,0)" d="m-25.5-30h19c0.831 0 1.5 0.669 1.5 1.5v12.5h-22v-12.5c0-0.831 0.669-1.5 1.5-1.5z" fill="#fff" opacity=".2"/>
<path transform="matrix(0,-1,-1,0,0,0)" d="m-16-30h9.5c0.831 0 1.5 0.669 1.5 1.5v25c0 0.831-0.669 1.5-1.5 1.5h-9.5z" fill="#fff" opacity=".1"/>
<path d="m3.5 5c-0.831 0-1.5 0.669-1.5 1.5v1c0-0.831 0.669-1.5 1.5-1.5h25c0.831 0 1.5 0.669 1.5 1.5v-1c0-0.831-0.669-1.5-1.5-1.5h-25z" fill="#fff" opacity=".1"/>
<rect transform="matrix(0,-1,-1,0,0,0)" x="-29" y="-31" width="12" height="15" rx=".5" ry=".5" opacity=".2"/>
<rect transform="matrix(0,-1,-1,0,0,0)" x="-28" y="-31" width="12" height="15" rx=".5" ry=".5" fill="#ebebeb"/>
</svg>
