<svg width="22" height="22" version="1" xmlns="http://www.w3.org/2000/svg">
 <rect x="2" y="1" width="18" height="12" rx=".75" ry=".75" fill="#5294e2"/>
 <rect x="2" y="2.5" width="18" height="12" rx=".75" ry=".75" opacity=".1"/>
 <rect x="2" y="3" width="18" height="12" rx=".75" ry=".75" fill="#89e058"/>
 <rect x="2" y="4.5" width="18" height="12" rx=".75" ry=".75" opacity=".1"/>
 <rect x="2" y="5" width="18" height="12" rx=".75" ry=".75" fill="#ffcd54"/>
 <rect x="1" y="7.5" width="20" height="14" rx="1" ry="1" opacity=".2"/>
 <rect x="1" y="7" width="20" height="14" rx="1" ry="1" fill="#57b8ec"/>
 <rect x="8" y="12.5" width="6" height="2" rx=".5" ry=".5" opacity=".2"/>
 <rect x="8" y="12" width="6" height="2" rx=".5" ry=".5" fill="#ececec"/>
 <path d="m2.75 1c-0.4155 0-0.75 0.3345-0.75 0.75v0.5c0-0.4155 0.3345-0.75 0.75-0.75h16.5c0.416 0 0.75 0.3345 0.75 0.75v-0.5c0-0.4155-0.334-0.75-0.75-0.75z" fill="#fff" opacity=".1"/>
 <path d="m2.75 3c-0.4155 0-0.75 0.3345-0.75 0.75v0.5c0-0.4155 0.3345-0.75 0.75-0.75h16.5c0.416 0 0.75 0.3345 0.75 0.75v-0.5c0-0.4155-0.334-0.75-0.75-0.75z" fill="#fff" opacity=".1"/>
 <path d="m2.75 5c-0.4155 0-0.75 0.3345-0.75 0.75v0.5c0-0.4155 0.3345-0.75 0.75-0.75h16.5c0.416 0 0.75 0.3345 0.75 0.75v-0.5c0-0.4155-0.334-0.75-0.75-0.75z" fill="#fff" opacity=".1"/>
 <g transform="translate(-1,-1)">
  <circle cx="18" cy="18" r="5" fill="#6ec149"/>
  <path d="m17.223 15-0.06613 0.7902a2.3572 2.3572 0 0 0-0.6889 0.39844l-0.7182-0.33818-0.75 1.2991 0.65205 0.45285a2.3572 2.3572 0 0 0-0.036 0.3976 2.3572 2.3572 0 0 0 0.0343 0.39928l-0.6505 0.4515 0.75 1.2991 0.7165-0.33733a2.3572 2.3572 0 0 0 0.69055 0.39592l0.06613 0.79185h1.5l0.06612-0.7902a2.3572 2.3572 0 0 0 0.6889-0.39844l0.7182 0.33817 0.75-1.2991-0.65205-0.45285a2.3572 2.3572 0 0 0 0.036-0.3976 2.3572 2.3572 0 0 0-0.0343-0.39928l0.6504-0.45118-0.75-1.2991-0.7165 0.33734a2.3572 2.3572 0 0 0-0.6905-0.395l-0.06612-0.79185h-1.5zm0.75 2.1428a0.85715 0.85715 0 0 1 0.857 0.857 0.85715 0.85715 0 0 1-0.857 0.857 0.85715 0.85715 0 0 1-0.857-0.857 0.85715 0.85715 0 0 1 0.857-0.857z" fill="#fff"/>
 </g>
</svg>
