<svg width="32" height="32" version="1.1" viewBox="0 0 8.4667 8.4667" xmlns="http://www.w3.org/2000/svg">
 <g transform="translate(0 -288.53)" fill="#666" stroke-width=".26458">
  <path d="m0.79375 292.9a0.39688 0.39688 0 0 1-0.39687 0.39687 0.39688 0.39688 0 0 1-0.39688-0.39687 0.39688 0.39688 0 0 1 0.39688-0.39688 0.39688 0.39688 0 0 1 0.39687 0.39688z"/>
  <path d="m4.4979 292.9a0.39688 0.39688 0 0 1-0.39688 0.39687 0.39688 0.39688 0 0 1-0.39688-0.39687 0.39688 0.39688 0 0 1 0.39688-0.39688 0.39688 0.39688 0 0 1 0.39688 0.39688z"/>
  <path d="m8.2021 292.9a0.39688 0.39688 0 0 1-0.39688 0.39687 0.39688 0.39688 0 0 1-0.39688-0.39687 0.39688 0.39688 0 0 1 0.39688-0.39688 0.39688 0.39688 0 0 1 0.39688 0.39688z"/>
 </g>
</svg>
