<svg width="20" height="20" version="1.1" viewBox="0 0 20 20" xmlns="http://www.w3.org/2000/svg">
<g fill="#fff">
<path class="ColorScheme-Text" d="m10 3c-2.21 0-4 1.79-4 4h2c0-1.1 0.9-2 2-2s2 0.9 2 2c0 0.55-0.21984 1.0502-0.58984 1.4102l-1.2402 1.2598c-0.72 0.73-1.1699 1.7301-1.1699 2.8301v0.5h2c0-1.5 0.44992-2.1001 1.1699-2.8301l0.90039-0.91992c0.57-0.57 0.92969-1.37 0.92969-2.25 0-2.21-1.79-4-4-4zm-1 12v2h2v-2z"/>
<path d="m1 10c0 2.21 1.79 4 4 4v-2c-1.1 0-2-0.9-2-2s0.9-2 2-2v-2c-2.21 0-4 1.79-4 4z"/>
<path d="m19 10c0 2.21-1.79 4-4 4v-2c1.1 0 2-0.9 2-2s-0.9-2-2-2v-2c2.21 0 4 1.79 4 4z"/>
</g>
</svg>
