<svg width="20" height="20" version="1.1" viewBox="0 0 20 20" xmlns="http://www.w3.org/2000/svg">
<path d="m9.5 2c-1.122 0-2.1632 0.36387-3.0313 0.98828l2.5313 2.5312v-1.5195h0.5c0.20775 0 0.39305 0.13292 0.46875 0.3125l2.875 2.8438 0.40625 0.375-0.4375 0.34375-0.79688 0.66016 2.9844 2.9844v-3.5195c0-3.324-2.453-6-5.5-6zm-5.5 0.5-1.5 1.5 1.8652 1.8652c-0.2323 0.66274-0.36523 1.3801-0.36523 2.1348v4c0 3.324 2.453 6 5.5 6 1.855 0 3.4748-1.0047 4.4688-2.5312l1.0312 1.0312 1.5-1.5-11.053-11.053zm6 3.1875v0.83203l1.3262 1.3262 0.45508-0.37695zm-1.3867 4.4258 1.3867 1.3867v2.8125l1.4062-1.4062 0.68359 0.68359-2.1211 2.0977c-0.0252 0.0599-0.0798 0.11106-0.125 0.15625-0.0904 0.0904-0.20525 0.15625-0.34375 0.15625h-0.5v-4.9375l-2.1563 1.7812c-0.0905 0.0905-0.20568 0.15625-0.34375 0.15625h-0.5v-0.5c0-0.15322 0.079-0.28328 0.1875-0.375z" opacity=".35"/>
</svg>
