<svg width="20" height="20" version="1.1" viewBox="0 0 20 20" xmlns="http://www.w3.org/2000/svg">
<g transform="translate(2,2)">
<path d="m8 0a3 3 0 0 0-3 3v2h-1c-0.554 0-1 0.446-1 1v4c0 0.554 0.446 1 1 1h6v-1h3v-4c0-0.554-0.446-1-1-1h-1v-2a3 3 0 0 0-3-3zm0 2c0.57597 0 1 0.42403 1 1v2h-2v-2c0-0.57597 0.42403-1 1-1zm-1 10v1h-2v3h5v-3h-1v-1zm-6 2c-0.554 0-1 0.446-1 1s0.446 1 1 1h3v-2z" opacity=".35"/>
<path d="m11 11v1c0 0.28 0.1 0.54 0.28 0.72l0.78 0.78-0.78 0.78c-0.18 0.19-0.28 0.45-0.28 0.72v1h1c0.28 0 0.54-0.1 0.72-0.28l0.78-0.78 0.78 0.78c0.18 0.18 0.45 0.28 0.72 0.28h1v-1c0-0.27-0.1-0.53-0.28-0.72l-0.78-0.78 0.78-0.78c0.18-0.18 0.28-0.44 0.28-0.72v-1h-1c-0.27 0-0.54 0.1-0.72 0.28l-0.78 0.79-0.78-0.79c-0.18-0.18-0.44-0.28-0.72-0.28z"/>
</g>
</svg>
