<svg width="20" height="20" version="1.1" viewBox="0 0 20 20" xmlns="http://www.w3.org/2000/svg">
<path class="ColorScheme-Text" d="m13 13v1c0 0.28 0.1 0.54 0.28 0.72l0.78 0.78-0.78 0.78c-0.18 0.19-0.28 0.45-0.28 0.72v1h1c0.28 0 0.54-0.1 0.72-0.28l0.78-0.78 0.78 0.78c0.18 0.18 0.45 0.28 0.72 0.28h1v-1c0-0.27-0.1-0.53-0.28-0.72l-0.78-0.78 0.78-0.78c0.18-0.18 0.28-0.44 0.28-0.72v-1h-1c-0.27 0-0.54 0.1-0.72 0.28l-0.78 0.79-0.78-0.79c-0.18-0.18-0.44-0.28-0.72-0.28z" fill="#fff"/>
<path class="ColorScheme-Text" d="m10 4c-3.0506 0-5.9194 1.0732-8 3l8 9 2-2.25v-1.75h1.555l4.445-5c-2.081-1.9269-4.949-3-8-3z" fill="#fff" opacity=".35"/>
</svg>
