<svg width="20" height="20" version="1.1" viewBox="0 0 20 20" xmlns="http://www.w3.org/2000/svg">
<g>
<rect x="8" y="2" width="4" height="1.6"/>
<path d="m4.8008 4c-0.4432 0-0.80078 0.36772-0.80078 0.82422v12.352c0 0.4565 0.35758 0.82422 0.80078 0.82422h10.398c0.4432 0 0.80078-0.36772 0.80078-0.82422v-12.352c0-0.4565-0.35758-0.82422-0.80078-0.82422zm2.1836 3.9863a1.0001 1.0001 0 0 1 1.0156 1.0137v6a1.0001 1.0001 0 1 1-2 0v-6a1.0001 1.0001 0 0 1 0.98438-1.0137zm3 0a1.0001 1.0001 0 0 1 1.0156 1.0137v6a1.0001 1.0001 0 1 1-2 0v-6a1.0001 1.0001 0 0 1 0.98438-1.0137zm3 0a1.0001 1.0001 0 0 1 1.0156 1.0137v6a1.0001 1.0001 0 1 1-2 0v-6a1.0001 1.0001 0 0 1 0.98438-1.0137z"/>
<rect x="3" y="3" width="14" height="3" rx=".778" ry=".75"/>
</g>
</svg>
