<svg width="32" height="32" version="1.1" xmlns="http://www.w3.org/2000/svg">
<rect x="2" y="23" width="27" height="6" rx="1.35" ry="1.4" opacity=".2"/>
<path d="m3.35 3c-0.7479 0-1.35 0.6244-1.35 1.4v21.2c0 0.7756 0.6021 1.4 1.35 1.4h24.3c0.7479 0 1.35-0.6244 1.35-1.4v-21.2c0-0.7756-0.6021-1.4-1.35-1.4z" fill="#57b8ec"/>
<rect x="2" y="21" width="27" height="6" rx="1.35" ry="1.4" opacity=".1"/>
<rect x="2" y="22" width="27" height="6" rx="1.35" ry="1.4" fill="#106796"/>
<rect x="12" y="22" width="7" height="6" rx="1.4" ry="1.5" fill="#fff" opacity=".2"/>
<path d="m15.5 24a3.5 3.5 0 0 0-3.4434 2.8965c0.16254 0.63568 0.69748 1.1035 1.3438 1.1035h4.1992c0.64832 0 1.1851-0.4706 1.3457-1.1094a3.5 3.5 0 0 0-3.4453-2.8906z" fill="#fff" opacity=".2"/>
<rect x="4" y="22" width="7" height="6" rx="1.4" ry="1.5" fill="#fff" opacity=".1"/>
<rect x="20" y="22" width="7" height="6" rx="1.4" ry="1.5" fill="#fff" opacity=".1"/>
<path d="m7 8.375v9.5625c0 0.58862 0.47388 1.0625 1.0625 1.0625h14.875c0.58862 0 1.0625-0.47388 1.0625-1.0625v-9.5625z" opacity=".2"/>
<path d="m7 7.375v9.5625c0 0.58862 0.47388 1.0625 1.0625 1.0625h14.875c0.58862 0 1.0625-0.47388 1.0625-1.0625v-9.5625z" fill="#fff"/>
<path d="m 8.0625,6 h 14.875 C 23.526125,6 24,6.4699587 24,7.053719 V 9 H 7 V 7.053719 C 7,6.4699587 7.473875,6 8.0625,6 Z" fill="#106796"/>
<path d="m3.3496 3c-0.7479 0-1.3496 0.62479-1.3496 1.4004v1c0-0.7756 0.60171-1.4004 1.3496-1.4004h24.301c0.7479 0 1.3496 0.62479 1.3496 1.4004v-1c0-0.7756-0.60171-1.4004-1.3496-1.4004h-24.301z" fill="#fff" opacity=".2"/>
<path d="m15.5 26a1.5 1.5 0 0 0-1.5 1.5 1.5 1.5 0 0 0 0.087891 0.5h2.8242a1.5 1.5 0 0 0 0.087891-0.5 1.5 1.5 0 0 0-1.5-1.5z" fill="#fff" opacity=".2"/>
<path d="m15.5 24a3.5 3.5 0 0 0-3.4434 2.8965c0.036116 0.14124 0.095993 0.2712 0.16602 0.39258a3.5 3.5 0 0 1 3.2773-2.2891 3.5 3.5 0 0 1 3.2793 2.2852c0.069976-0.12206 0.1303-0.25253 0.16602-0.39453a3.5 3.5 0 0 0-3.4453-2.8906z" fill="#fff" opacity=".2"/>
<path d="m15.5 26a1.5 1.5 0 0 0-1.5 1.5 1.5 1.5 0 0 0 0.087891 0.5 1.5 1.5 0 0 1 1.4121-1 1.5 1.5 0 0 1 1.4121 1 1.5 1.5 0 0 0 0.087891-0.5 1.5 1.5 0 0 0-1.5-1.5z" fill="#fff" opacity=".2"/>
</svg>
