<svg width="32" height="32" version="1" xmlns="http://www.w3.org/2000/svg">
 <circle cx="16.5" cy="16.5" r="14.5" opacity=".2"/>
 <circle cx="16.5" cy="15.5" r="14.5" fill="#ff5722"/>
 <path d="m16.5 1a14.5 14.5 0 0 0-14.5 14.5 14.5 14.5 0 0 0 0.021484 0.58008 14.5 14.5 0 0 1 14.479-14.08 14.5 14.5 0 0 1 14.479 13.92 14.5 14.5 0 0 0 0.02148-0.41992 14.5 14.5 0 0 0-14.5-14.5z" fill="#fff" opacity=".2"/>
 <path d="m16.5 5c-3.5087 0-6.5 2.676-6.5 6v3h-1.4167c-0.87717 0-1.5833 0.669-1.5833 1.5v9c0 0.831 0.70617 1.5 1.5833 1.5h15.833c0.87717 0 1.5833-0.669 1.5833-1.5v-9c0-0.831-0.70617-1.5-1.5833-1.5h-1.4167v-3c0-3.324-2.9913-6-6.5-6zm0 3c1.7543 0 3.6835 1.3482 3.5 3v3h-7v-3c0-1.662 1.7457-3 3.5-3z" opacity=".2"/>
 <path d="m16.5 4c-3.5087 0-6.5 2.676-6.5 6v3h-1.4167c-0.87717 0-1.5833 0.669-1.5833 1.5v9c0 0.831 0.70617 1.5 1.5833 1.5h15.833c0.87717 0 1.5833-0.669 1.5833-1.5v-9c0-0.831-0.70617-1.5-1.5833-1.5h-1.4167v-3c0-3.324-2.9913-6-6.5-6zm0 3c1.7543 0 3.6835 1.3482 3.5 3v3h-7v-3c0-1.662 1.7457-3 3.5-3z" fill="#fff"/>
</svg>
