<svg width="32" height="32" version="1" xmlns="http://www.w3.org/2000/svg">
 <rect x="8" y="1" width="16" height="17" rx="1.275" ry="1.275" fill="#5895dc"/>
 <rect x="6" y="4" width="20" height="17" rx="1.275" ry="1.275" fill="#89e058"/>
 <rect x="4" y="7" width="24" height="17" rx="1.275" ry="1.275" fill="#ffcd54"/>
 <rect x="2" y="11" width="28" height="20" rx="1.5" ry="1.5" opacity=".2"/>
 <rect x="2" y="10" width="28" height="20" rx="1.5" ry="1.5" fill="#57b8ec"/>
 <rect x="11" y="19" width="10" height="3" rx="1" ry="1" opacity=".2"/>
 <rect x="11" y="18" width="10" height="3" rx="1" ry="1" fill="#ececec"/>
 <path d="m9.2754 1c-0.70635 0-1.2754 0.56904-1.2754 1.2754v1c0-0.70635 0.56904-1.2754 1.2754-1.2754h13.449c0.70635 0 1.2754 0.56904 1.2754 1.2754v-1c0-0.70635-0.56904-1.2754-1.2754-1.2754h-13.449z" fill="#fff" opacity=".1"/>
 <path d="m7.2754 4c-0.70635 0-1.2754 0.56904-1.2754 1.2754v1c0-0.70635 0.56904-1.2754 1.2754-1.2754h17.449c0.70635 0 1.2754 0.56904 1.2754 1.2754v-1c0-0.70635-0.56904-1.2754-1.2754-1.2754h-17.449z" fill="#fff" opacity=".1"/>
 <path d="m5.2754 7c-0.70635 0-1.2754 0.56904-1.2754 1.2754v1c0-0.70635 0.56904-1.2754 1.2754-1.2754h21.449c0.70635 0 1.2754 0.56904 1.2754 1.2754v-1c0-0.70635-0.56904-1.2754-1.2754-1.2754h-21.449z" fill="#fff" opacity=".1"/>
 <path d="m7.2754 2.9996c-0.70635 0-1.2754 0.56904-1.2754 1.2754v1c0-0.70635 0.56904-1.2754 1.2754-1.2754h17.449c0.70635 0 1.2754 0.56904 1.2754 1.2754v-1c0-0.70635-0.56904-1.2754-1.2754-1.2754z" opacity=".1"/>
 <path d="m5.2754 5.9996c-0.70635 0-1.2754 0.56904-1.2754 1.2754v1c0-0.70635 0.56904-1.2754 1.2754-1.2754h21.449c0.70635 0 1.2754 0.56904 1.2754 1.2754v-1c0-0.70635-0.56904-1.2754-1.2754-1.2754z" opacity=".1"/>
</svg>
