<svg width="32" height="32" version="1" xmlns="http://www.w3.org/2000/svg">
 <rect x="4" y="1" width="24" height="17" rx="1.275" ry="1.275" fill="#5895dc"/>
 <rect x="4" y="3" width="24" height="17" rx="1.275" ry="1.275" opacity=".1"/>
 <rect x="4" y="4" width="24" height="17" rx="1.275" ry="1.275" fill="#89e058"/>
 <rect x="4" y="6" width="24" height="17" rx="1.275" ry="1.275" opacity=".1"/>
 <rect x="4" y="7" width="24" height="17" rx="1.275" ry="1.275" fill="#ffcd54"/>
 <rect x="2" y="11" width="28" height="20" rx="1.5" ry="1.5" opacity=".2"/>
 <rect x="2" y="10" width="28" height="20" rx="1.5" ry="1.5" fill="#57b8ec"/>
 <rect x="11" y="19" width="10" height="3" rx="1" ry="1" opacity=".2"/>
 <rect x="11" y="18" width="10" height="3" rx="1" ry="1" fill="#ececec"/>
 <path d="m5.2754 1c-0.7064 0-1.2754 0.569-1.2754 1.2754v1c0-0.7064 0.569-1.2754 1.2754-1.2754h21.45c0.706 0 1.275 0.569 1.275 1.2754v-1c0-0.7064-0.569-1.2754-1.275-1.2754h-21.45z" fill="#fff" opacity=".1"/>
 <path d="m5.2754 3.9996c-0.7064 0-1.2754 0.569-1.2754 1.2754v1c0-0.7064 0.569-1.2754 1.2754-1.2754h21.45c0.706 0 1.275 0.569 1.275 1.2754v-1c0-0.7064-0.569-1.2754-1.275-1.2754z" fill="#fff" opacity=".1"/>
 <path d="m5.2754 6.9996c-0.7064 0-1.2754 0.569-1.2754 1.2754v1c0-0.7064 0.569-1.2754 1.2754-1.2754h21.45c0.706 0 1.275 0.569 1.275 1.2754v-1c0-0.7064-0.569-1.2754-1.275-1.2754z" fill="#fff" opacity=".1"/>
 <circle cx="24" cy="24" r="8" opacity=".2"/>
 <circle cx="24" cy="23" r="8" fill="#48aeff"/>
 <rect x="20" y="19" width="3" height="3" rx=".25" ry=".25" fill="#fff"/>
 <rect x="25" y="19" width="3" height="3" rx=".25" ry=".25" fill="#fff"/>
 <rect x="25" y="24" width="3" height="3" rx=".25" ry=".25" fill="#fff"/>
 <rect x="20" y="24" width="3" height="3" rx=".25" ry=".25" fill="#fff"/>
</svg>
