<svg width="32" height="32" version="1.1" xmlns="http://www.w3.org/2000/svg">
<path d="m3.4004 4c-0.7756 0-1.4004 0.6248-1.4004 1.4004v17.599h28v-17.6c0-0.7756-0.625-1.4004-1.4-1.4004h-25.2z" fill="#57b8ec"/>
<path d="m3.4 29c-0.7756 0-1.4-0.624-1.4-1.4v-4.6h28v4.6c0 0.7756-0.6244 1.4-1.4 1.4z" fill="#106796"/>
<circle cx="17.5" cy="26.5" r="1.5" opacity=".2"/>
<circle cx="22.5" cy="26.5" r="1.5" opacity=".2"/>
<circle cx="27.5" cy="26.5" r="1.5" opacity=".2"/>
<circle cx="17.5" cy="25.5" r="1.5" fill="#fff" opacity=".72"/>
<circle cx="22.5" cy="25.5" r="1.5" fill="#fff" opacity=".72"/>
<circle cx="27.5" cy="25.5" r="1.5" fill="#fff" opacity=".72"/>
<path d="m3.4004 4c-0.7756 0-1.4004 0.6248-1.4004 1.4004v1c0-0.7756 0.6248-1.4004 1.4004-1.4004h25.2c0.775 0 1.4 0.6248 1.4 1.4004v-1c0-0.7756-0.625-1.4004-1.4-1.4004h-25.2z" fill="#fff" opacity=".1"/>
<path d="m2 27.6v1c0 0.775 0.6248 1.4 1.4004 1.4h25.2c0.775 0 1.4-0.625 1.4-1.4v-1c0 0.775-0.625 1.4-1.4 1.4h-25.2c-0.7752 0-1.4-0.625-1.4-1.4z" opacity=".2"/>
</svg>
