<svg width="16" height="16" version="1.1" xmlns="http://www.w3.org/2000/svg">
 <path d="m5.9544 2-0.7817 2h6.0003c0.43 0 0.761 0.61 0.609 1l-0.391 1h-5.0001c-0.92 0-1.8885 0.38-2.6292 0.97-0.7367 0.58-1.262 1.31-1.5435 2.03-0.2814 0.72-0.2968 1.45-0.0135 2.03s0.9309 0.97 1.8409 0.97h7.0004l2.736-7c0.637-1.63-0.148-3-1.828-3zm-0.3453 6h4.9999l-0.7817 2h-5c-0.4 0-0.527-0.11-0.6105-0.28-0.0836-0.17-0.108-0.44 0.0014-0.72 0.1095-0.28 0.315-0.55 0.5315-0.72 0.2125-0.16 0.4394-0.28 0.8594-0.28z" fill="#666"/>
 <path d="m2 13v2h12v-2z" fill="#666"/>
</svg>
