<svg width="32" height="32" version="1.1" viewBox="0 0 8.4667 8.4667" xmlns="http://www.w3.org/2000/svg">
 <path d="m4.4979 4.1011a0.39688 0.39688 0 0 1-0.39688 0.39688 0.39688 0.39688 0 0 1-0.39688-0.39688 0.39688 0.39688 0 0 1 0.39688-0.39688 0.39688 0.39688 0 0 1 0.39688 0.39688z" fill="#666" stroke-width=".26458"/>
 <path d="M 4.4979,0.39688 A 0.39688,0.39688 0 0 1 4.10102,0.79376 0.39688,0.39688 0 0 1 3.70414,0.39688 0.39688,0.39688 0 0 1 4.10102,0 0.39688,0.39688 0 0 1 4.4979,0.39688 Z" fill="#666" stroke-width=".26458"/>
 <path d="m4.4979 7.8052a0.39688 0.39688 0 0 1-0.39688 0.39688 0.39688 0.39688 0 0 1-0.39688-0.39688 0.39688 0.39688 0 0 1 0.39688-0.39688 0.39688 0.39688 0 0 1 0.39688 0.39688z" fill="#666" stroke-width=".26458"/>
</svg>
