<svg width="16" height="16" version="1.1" xmlns="http://www.w3.org/2000/svg">
<defs>
<style id="current-color-scheme" type="text/css">.ColorScheme-Text { color:#666666; } .ColorScheme-Highlight { color:#4285f4; }</style>
</defs>
<path d="m6.9668 1a1.0001 1.0001 0 0 0-0.95312 0.83594l-1.209 7.2559-0.83398-3.334a1.0001 1.0001 0 0 0-0.9707-0.75781h-3v2h2.2188l1.8105 7.2422a1.0001 1.0001 0 0 0 1.957-0.078126l1.3672-8.2031 1.2051 3.375a1.0001 1.0001 0 0 0 1.8984-0.048828l0.5918-1.9746 1.002 3.0039a1.0001 1.0001 0 0 0 0.94922 0.68359h3v-2h-2.2793l-1.7715-5.3164a1.0001 1.0001 0 0 0-1.9062 0.029297l-0.625 2.084-1.4766-4.1328a1.0001 1.0001 0 0 0-0.97461-0.66406z" color="#666666" color-rendering="auto" dominant-baseline="auto" fill="#00bcd4" image-rendering="auto" shape-rendering="auto" solid-color="#000000" stop-color="#000000" style="font-feature-settings:normal;font-variant-alternates:normal;font-variant-caps:normal;font-variant-east-asian:normal;font-variant-ligatures:normal;font-variant-numeric:normal;font-variant-position:normal;font-variation-settings:normal;inline-size:0;isolation:auto;mix-blend-mode:normal;shape-margin:0;shape-padding:0;text-decoration-color:#000000;text-decoration-line:none;text-decoration-style:solid;text-indent:0;text-orientation:mixed;text-transform:none;white-space:normal"/>
</svg>
