<svg width="16" height="16" version="1.1" xmlns="http://www.w3.org/2000/svg">
<defs>
<style id="current-color-scheme" type="text/css">.ColorScheme-Text { color:#666666; } .ColorScheme-Highlight { color:#4285f4; }</style>
</defs>
<path class="ColorScheme-Text" d="m12.238 1.9922c-0.241 0.0012-0.464 0.08-0.674 0.2305-0.53 0.381-1.6281 0.7793-3.5581 0.7793-1.94 0-3.0404-0.3983-3.5704-0.7793-0.21-0.151-0.4103-0.2207-0.6503-0.2207s-0.5206 0.0697-0.8106 0.2207c-1.03 0.551-1.9898 2.3332-2.5098 4.6582-0.44 1.984-0.59984 4.6791-0.33984 5.7641 0.23 0.942 0.62986 1.355 1.3398 1.355 1.04-0.02 2.3495-1.186 3.1895-2.76 0.6-0.872 2.0016-1.2629 3.3516-1.222 1.34-0.0509 2.7401 0.35 3.3401 1.222 0.84 1.574 2.149 2.74 3.199 2.76 0.7 0 1.1-0.413 1.33-1.355 0.26-1.085 0.1-3.7801-0.34-5.7641-0.52-2.325-1.48-4.1072-2.51-4.6582-0.285-0.1555-0.545-0.2318-0.787-0.2305zm-8.238 3.0078h1v1h1v1h-1v1h-1v-1h-1v-1h1v-1zm7.5 0a0.5 0.5 0 0 1 0.5 0.5 0.5 0.5 0 0 1-0.5 0.5 0.5 0.5 0 0 1-0.5-0.5 0.5 0.5 0 0 1 0.5-0.5zm-1 1a0.5 0.5 0 0 1 0.5 0.5 0.5 0.5 0 0 1-0.5 0.5 0.5 0.5 0 0 1-0.5-0.5 0.5 0.5 0 0 1 0.5-0.5zm2 0a0.5 0.5 0 0 1 0.5 0.5 0.5 0.5 0 0 1-0.5 0.5 0.5 0.5 0 0 1-0.5-0.5 0.5 0.5 0 0 1 0.5-0.5zm-1 1a0.5 0.5 0 0 1 0.5 0.5 0.5 0.5 0 0 1-0.5 0.5 0.5 0.5 0 0 1-0.5-0.5 0.5 0.5 0 0 1 0.5-0.5z" fill="#e25252"/>
</svg>
