<svg width="16" height="16" version="1.1" xmlns="http://www.w3.org/2000/svg">
<defs>
<style id="current-color-scheme" type="text/css">.ColorScheme-Text { color:#666666; } .ColorScheme-Highlight { color:#4285f4; }</style>
</defs>
<path class="ColorScheme-Text" d="m8-1.0572e-6c-0.72118 0.010036-1.2351 0.43177-1.4765 1.1319l0.0078-0.031334-1.1328 3.9133h-3.8202c-0.0083-1.301e-4 -0.01706-1.301e-4 -0.02539 0-0.45633 0.0144-0.86826 0.22038-1.1582 0.56401-0.62697 0.70072-0.49343 1.804 0.30272 2.3266l3.0038 2.1385-1.166 3.9853c-0.0013 0.0039-0.0027 0.0078-0.0039 0.01175-0.17815 0.56979-0.01062 1.1573 0.43748 1.5589 0.0032 3e-3 0.0084 0.0049 0.01172 0.0078 0.53848 0.46608 1.2942 0.52483 1.9023 0.13904 0.01157-0.0073 0.024-0.01366 0.03515-0.02155l3.0819-2.1679 3.0819 2.1679c0.01115 0.0079 0.0236 0.01426 0.03516 0.02155 0.60812 0.38578 1.3638 0.32704 1.9023-0.13904 0.0033-0.0029 0.0085-0.0048 0.01172-0.0078 0.44811-0.40157 0.61563-0.98908 0.43748-1.5589-0.0012-0.0039-0.0026-0.0078-0.0039-0.01175l-1.166-3.9853 3.0038-2.1385c0.79616-0.52259 0.92969-1.6258 0.30272-2.3266-0.2899-0.34364-0.70183-0.54961-1.1582-0.56401-0.0083-1.302e-4 -0.01709-1.302e-4 -0.02539 0h-3.8202l-1.1328-3.9133 0.00781 0.031334c-0.24138-0.70021-0.75533-1.1219-1.4765-1.132z" fill="#e4e4e4"/>
</svg>
