<svg width="16" height="16" version="1.1" xmlns="http://www.w3.org/2000/svg">
<defs>
<style id="current-color-scheme" type="text/css">.ColorScheme-Text { color:#666666; } .ColorScheme-Highlight { color:#4285f4; }</style>
</defs>
<path class="ColorScheme-Text" d="m9 3c-1.5032 0-2.8787 0.84595-3.5605 2.1855-0.2983-0.1218-0.61725-0.18485-0.93945-0.18555-1.2505 0-2.3076 0.92672-2.4746 2.166-1.2106 0.4159-2.024 1.554-2.0254 2.834 0 1.657 1.3431 3 3 3h9c1.657 0 3-1.343 3-3-1e-3 -1.2733-0.80581-2.407-2.0078-2.8281 0.003999-0.057 0.006812-0.11458 0.007812-0.17188 0-2.2091-1.791-4-4-4zm0 1.998v0.0019531c1.127 0 1.996 0.87019 1.998 1.9961-1e-3 0.014-9.53e-4 0.028969-0.001953 0.042969a2.0002 2.0002 0 0 0 1.334 2.0215c0.407 0.1427 0.66992 0.50971 0.66992 0.94141-1e-3 0.575-0.425 0.99805-1 0.99805h-9c-0.5751 0-0.99675-0.42305-0.99805-0.99805 0.0017-0.4327 0.26413-0.80256 0.67383-0.94336a2.0002 2.0002 0 0 0 1.332-1.625c0.0355-0.2631 0.22979-0.43359 0.49219-0.43359 0.063 7e-4 0.12509 0.011156 0.18359 0.035156a2.0002 2.0002 0 0 0 2.5391-0.94141c0.343-0.674 1.0244-1.0957 1.7773-1.0957z" fill="#00bcd4"/>
</svg>
