<svg width="16" height="16" version="1.1" xmlns="http://www.w3.org/2000/svg">
<defs>
<style id="current-color-scheme" type="text/css">.ColorScheme-Text { color:#444444; } .ColorScheme-Highlight { color:#4285f4; } .ColorScheme-NeutralText { color:#ff9800; } .ColorScheme-PositiveText { color:#4caf50; } .ColorScheme-NegativeText { color:#f44336; }</style>
</defs>
<path class="ColorScheme-Text" d="m8 1c-1.5097 0.0032-2.9779 0.49446-4.1855 1.4004l1.4316 1.4316c0.81664-0.54114 1.7742-0.83046 2.7539-0.83203 2.419 0 4.4372 1.7177 4.9004 4h-0.90039l2 4 2-4h-1.0801c-0.4867-3.3906-3.3946-6-6.9199-6zm-6 4-2 4h1.0801c0.4867 3.3906 3.3946 6 6.9199 6 1.5097-0.0032 2.9779-0.49446 4.1855-1.4004l-1.4316-1.4316c-0.81664 0.54114-1.7742 0.83046-2.7539 0.83203-2.419 0-4.4372-1.7177-4.9004-4h0.90039z" fill="#7e57c2"/>
</svg>
