<svg width="16" height="16" version="1.1" xmlns="http://www.w3.org/2000/svg">
<defs>
<style id="current-color-scheme" type="text/css">.ColorScheme-Text { color:#666666; } .ColorScheme-Highlight { color:#4285f4; }</style>
</defs>
<path class="ColorScheme-Text" d="m1.793 2.9902c-0.681-1e-4 -1.0508 0.7963-0.6114 1.3164l1.4356 1.7559c-1.4492 1.3027-2.6172 3.1213-2.6172 5.1675 0 0.77 0.77734 0.77 0.77734 0.77h14.426s0.797 0 0.797-0.809c0-2.0306-1.174-3.8358-2.615-5.1305l1.433-1.7539c0.444-0.5285 0.056-1.3336-0.634-1.3144-0.236 0.0064-0.457 0.1165-0.604 0.3008l-1.492 1.8261c-1.198-0.7067-2.5941-1.1191-4.088-1.1191-1.4946 0-2.8892 0.4118-4.0879 1.1191l-1.4922-1.8261c-0.1518-0.1913-0.3827-0.3028-0.6269-0.3028zm2.207 5.0098c0.5523 0 1 0.4477 1 1s-0.4477 1-1 1-1-0.4477-1-1 0.4477-1 1-1zm8 0c0.552 0 1 0.4477 1 1s-0.448 1-1 1-1-0.4477-1-1 0.448-1 1-1z" fill="#8e8e8e"/>
</svg>
