<svg width="16" height="16" version="1.1" xmlns="http://www.w3.org/2000/svg">
<defs>
<style id="current-color-scheme" type="text/css">.ColorScheme-Text { color:#666666; } .ColorScheme-Highlight { color:#4285f4; }</style>
</defs>
<path class="ColorScheme-Text" d="m5 9.176c-0.321-0.115-0.659-0.175-1-0.176-1.657 0-3 1.343-3 3s1.343 3 3 3 3-1.343 3-3v-7h6v4.176c-0.321-0.115-0.659-0.175-1-0.176-1.657 0-3 1.343-3 3s1.343 3 3 3 3-1.343 3-3v-10c0-0.554-0.669-1-1.5-1h-7c-0.831 0-1.5 0.446-1.5 1" fill="#5294e2"/>
</svg>
