<svg width="16" height="16" version="1.1" xmlns="http://www.w3.org/2000/svg">
<defs>
<style id="current-color-scheme" type="text/css">.ColorScheme-Text { color:#666666; } .ColorScheme-Highlight { color:#4285f4; }</style>
</defs>
<path class="ColorScheme-Text" d="m8.4648 1.0156c-0.75501-0.050837-1.5268 0.021464-2.2871 0.22656-3.0412 0.82039-5.1666 3.5825-5.1777 6.7324a1 1 0 0 0 0.00195 0.025391h-1.002l2 2 2-2h-1a1 1 0 0 0 0-0.017578c0.00799-2.258 1.5171-4.2224 3.6973-4.8105 2.1801-0.58811 4.4727 0.35114 5.6152 2.2988 1.1425 1.9477 0.84281 4.4055-0.73438 6.0215-1.5362 1.574-4.0817 1.7483-6.0938 0.63281a1.0001 1.0001 0 1 0-0.96875 1.75c2.7177 1.5067 6.2531 1.3098 8.4941-0.98633 2.2001-2.2542 2.6211-5.7127 1.0273-8.4297-1.1953-2.0377-3.3072-3.2908-5.5723-3.4434zm-0.48047 2.9707a1.0001 1.0001 0 0 0-0.98438 1.0137v2.8633a1 1 0 0 0 0.064453 0.49805 1 1 0 0 0 0.33203 0.44922l1.8965 1.8965a1 1 0 1 0 1.4141-1.4141l-1.707-1.707v-2.5859a1 1 0 0 0-1.0156-1.0137z" fill="#e4e4e4"/>
</svg>
