<svg width="24" height="24" version="1.1" xmlns="http://www.w3.org/2000/svg">
<path d="m3 3c-0.554 0-1 0.446-1 1v15c0 0.554 0.446 1 1 1h18c0.554 0 1-0.446 1-1v-15c0-0.554-0.446-1-1-1z" fill="#57b8ec"/>
<rect x="2" y="16.5" width="20" height="4" rx="1" ry="1" opacity=".1"/>
<rect x="2" y="17" width="20" height="4" rx="1" ry="1" fill="#106796"/>
<path d="m3 3c-0.554 0-1 0.446-1 1v0.5c0-0.554 0.446-1 1-1h18c0.554 0 1 0.446 1 1v-0.5c0-0.554-0.446-1-1-1z" fill="#fff" opacity=".2"/>
<path d="m2 20v0.5c0 0.554 0.446 1 1 1h18c0.554 0 1-0.446 1-1v-0.5c0 0.554-0.446 1-1 1h-18c-0.554 0-1-0.446-1-1z" opacity=".2"/>
<rect x="10" y="17" width="4" height="4" rx="1" ry="1" fill="#fff" opacity=".2"/>
<rect x="4" y="17" width="4" height="4" rx="1" ry="1" fill="#fff" opacity=".1"/>
<rect x="16" y="17" width="4" height="4" rx="1" ry="1" fill="#fff" opacity=".1"/>
<path d="m12 19a2.5 2.5 0 0 0-1.998 1.0078c0.004472 0.55011 0.44684 0.99219 0.99805 0.99219h2c0.55187 0 0.99463-0.4431 0.99805-0.99414a2.5 2.5 0 0 0-1.998-1.0059z" fill="#fff" opacity=".2"/>
<path d="m12 20a1 1 0 0 0-1 1h2a1 1 0 0 0-1-1z" fill="#fff" opacity=".2"/>
<path d="m6 7v6.75c0 0.4155 0.3345 0.75 0.75 0.75h10.5c0.4155 0 0.75-0.3345 0.75-0.75v-6.75z" opacity=".2"/>
<path d="m6 6.5v6.75c0 0.4155 0.3345 0.75 0.75 0.75h10.5c0.4155 0 0.75-0.3345 0.75-0.75v-6.75z" fill="#fff"/>
<path d="m 6.75,5 h 10.5 C 17.6655,5 18,5.3345 18,5.75 V 7 H 6 V 5.75 C 6,5.3345 6.3345,5 6.75,5 Z" fill="#106796"/>
<path d="m12 19a2.5 2.5 0 0 0-1.998 1.0078c0.001142 0.14052 0.030992 0.27373 0.083985 0.39453a2.5 2.5 0 0 1 1.9141-0.90234 2.5 2.5 0 0 1 1.9121 0.9043c0.05394-0.12204 0.085057-0.2562 0.085938-0.39844a2.5 2.5 0 0 0-1.998-1.0059z" fill="#fff" opacity=".2"/>
<path d="m12 20a1 1 0 0 0-1 1h0.13574a1 1 0 0 1 0.86426-0.5 1 1 0 0 1 0.86524 0.5h0.13476a1 1 0 0 0-1-1z" fill="#fff" opacity=".2"/>
</svg>
