<svg width="24" height="24" version="1" xmlns="http://www.w3.org/2000/svg">
 <circle cx="12" cy="12.5" r="10" opacity=".2"/>
 <circle cx="12" cy="12" r="10" fill="#e4e4e4"/>
 <path d="m12 2a10 10 0 0 0-10 10 10 10 0 0 0 0.01075 0.291 10 10 0 0 1 9.989-9.791 10 10 0 0 1 9.9895 9.709 10 10 0 0 0 0.0105-0.209 10 10 0 0 0-10-10z" fill="#fff" opacity=".2"/>
 <path d="m8.5 6a2.5 2.5 0 0 0-2.5 2.5 2.5 2.5 0 0 0 2.5 2.5h7v-5z" fill="#3084e9"/>
 <path d="m8.5 13v5h7a2.5 2.5 0 0 0 2.5-2.5 2.5 2.5 0 0 0-2.5-2.5z" fill="#aeaeae"/>
 <path d="m8.5 6a2.5 2.5 0 0 0-2.5 2.5 2.5 2.5 0 0 0 0.01367 0.25781 2.5 2.5 0 0 1 2.4863-2.2578h7v-0.5zm0 7v0.5h7a2.5 2.5 0 0 1 2.4863 2.2422 2.5 2.5 0 0 0 0.013672-0.24219 2.5 2.5 0 0 0-2.5-2.5z" opacity=".1"/>
 <path d="m15.5 6.5a2.5 2.5 0 0 0-2.5 2.5 2.5 2.5 0 0 0 2.5 2.5 2.5 2.5 0 0 0 2.5-2.5 2.5 2.5 0 0 0-2.5-2.5zm-7 7a2.5 2.5 0 0 0-2.5 2.5 2.5 2.5 0 0 0 2.5 2.5 2.5 2.5 0 0 0 2.5-2.5 2.5 2.5 0 0 0-2.5-2.5z" opacity=".2"/>
 <circle cx="15.5" cy="8.5" r="2.5" fill="#fff"/>
 <circle cx="8.5" cy="15.5" r="2.5" fill="#fff"/>
</svg>
