<svg width="24" height="24" version="1" xmlns="http://www.w3.org/2000/svg">
 <circle cx="12" cy="12.5" r="10" opacity=".2"/>
 <circle cx="12" cy="12" r="10" fill="#ff5722"/>
 <path d="m12 2a10 10 0 0 0-10 10 10 10 0 0 0 0.01075 0.291 10 10 0 0 1 9.989-9.791 10 10 0 0 1 9.9895 9.709 10 10 0 0 0 0.0105-0.209 10 10 0 0 0-10-10z" fill="#fff" opacity=".2"/>
 <path d="m12 4.5c-2.216 0-4 1.784-4 4v2h-1c-0.554 0-1 0.446-1 1v6c0 0.554 0.446 1 1 1h10c0.554 0 1-0.446 1-1v-6c0-0.554-0.446-1-1-1h-1v-2c0-2.216-1.784-4-4-4zm0 2c1.108 0 2 0.892 2 2v2h-4v-2c0-1.108 0.892-2 2-2z" opacity=".2"/>
 <path d="m12 4c-2.216 0-4 1.784-4 4v2h-1c-0.554 0-1 0.446-1 1v6c0 0.554 0.446 1 1 1h10c0.554 0 1-0.446 1-1v-6c0-0.554-0.446-1-1-1h-1v-2c0-2.216-1.784-4-4-4zm0 2c1.108 0 2 0.892 2 2v2h-4v-2c0-1.108 0.892-2 2-2z" fill="#fff"/>
</svg>
