<svg width="24" height="24" version="1" xmlns="http://www.w3.org/2000/svg">
 <circle cx="12" cy="12.5" r="10" opacity=".2"/>
 <circle cx="12" cy="12" r="10" fill="#3f51b5"/>
 <path d="m12 2a10 10 0 0 0-10 10 10 10 0 0 0 0.01075 0.291 10 10 0 0 1 9.989-9.791 10 10 0 0 1 9.9895 9.709 10 10 0 0 0 0.0105-0.209 10 10 0 0 0-10-10z" fill="#fff" opacity=".2"/>
 <path d="m16 5.5002c-0.50478 0-1.0096 0.33736-1 1.0117v7.9883h-2.5l3.5 4.5 3.5-4.5h-2.5v-7.9883c0.0096-0.67436-0.49522-1.0117-1-1.0117zm-8 0.5-3.5 4.5h2.5v7.9883c-0.019125 1.3487 2.0191 1.3487 2 0v-7.9883h2.5z" opacity=".2"/>
 <path d="m16 5c-0.50478 0-1.0096 0.33736-1 1.0117v7.9883h-2.5l3.5 4.5 3.5-4.5h-2.5v-7.9883c0.009563-0.67436-0.49522-1.0117-1-1.0117zm-8 0.5-3.5 4.5h2.5v7.9883c-0.019125 1.3487 2.0191 1.3487 2 0v-7.9883h2.5l-3.5-4.5z" fill="#fff"/>
</svg>
