<svg width="24" height="24" version="1" xmlns="http://www.w3.org/2000/svg">
 <rect x="3" y="2" width="18" height="12" rx=".75" ry=".75" fill="#5294e2"/>
 <rect x="3" y="3.5" width="18" height="12" rx=".75" ry=".75" opacity=".1"/>
 <rect x="3" y="4" width="18" height="12" rx=".75" ry=".75" fill="#89e058"/>
 <rect x="3" y="5.5" width="18" height="12" rx=".75" ry=".75" opacity=".1"/>
 <rect x="3" y="6" width="18" height="12" rx=".75" ry=".75" fill="#ffcd54"/>
 <rect x="2" y="8.5" width="20" height="14" rx="1" ry="1" opacity=".2"/>
 <rect x="2" y="8" width="20" height="14" rx="1" ry="1" fill="#57b8ec"/>
 <rect x="9" y="13.5" width="6" height="2" rx=".5" ry=".5" opacity=".2"/>
 <rect x="9" y="13" width="6" height="2" rx=".5" ry=".5" fill="#ececec"/>
 <path d="m3.75 2c-0.4155 0-0.75 0.3345-0.75 0.75v0.5c0-0.4155 0.3345-0.75 0.75-0.75h16.5c0.416 0 0.75 0.3345 0.75 0.75v-0.5c0-0.4155-0.334-0.75-0.75-0.75z" fill="#fff" opacity=".1"/>
 <path d="m3.75 4c-0.4155 0-0.75 0.3345-0.75 0.75v0.5c0-0.4155 0.3345-0.75 0.75-0.75h16.5c0.416 0 0.75 0.3345 0.75 0.75v-0.5c0-0.4155-0.334-0.75-0.75-0.75z" fill="#fff" opacity=".1"/>
 <path d="m3.75 6c-0.4155 0-0.75 0.3345-0.75 0.75v0.5c0-0.4155 0.3345-0.75 0.75-0.75h16.5c0.416 0 0.75 0.3345 0.75 0.75v-0.5c0-0.4155-0.334-0.75-0.75-0.75z" fill="#fff" opacity=".1"/>
 <circle cx="18" cy="18" r="6" fill="#48aeff"/>
 <rect x="15" y="15" width="2" height="2" rx=".25" ry=".25" fill="#fff"/>
 <rect x="19" y="15" width="2" height="2" rx=".25" ry=".25" fill="#fff"/>
 <rect x="19" y="19" width="2" height="2" rx=".25" ry=".25" fill="#fff"/>
 <rect x="15" y="19" width="2" height="2" rx=".25" ry=".25" fill="#fff"/>
</svg>
