<svg width="24" height="24" version="1" xmlns="http://www.w3.org/2000/svg">
<path d="m3 3.5s-1 0-1 1v14c0 0.554 0.446 1 1 1h18c0.554 0 1-0.446 1-1v-14c0-0.554-0.446-1-1-1z" opacity=".2"/>
<path d="m3 3s-1 0-1 1v14c0 0.554 0.446 1 1 1h18c0.554 0 1-0.446 1-1v-14c0-0.554-0.446-1-1-1z" fill="#57b8ec"/>
<path d="m12 19h9c0.554 0 1-0.446 1-1v-14c0-0.554-0.446-1-1-1h-9z" fill="#fff" opacity=".2"/>
<path d="m3 3s-1 0-1 1v7h20v-7c0-0.554-0.446-1-1-1z" fill="#fff" opacity=".1"/>
<path d="m3 3c-0.554 0-1 0.446-1 1v0.5c0-0.554 0.446-1 1-1h18c0.554 0 1 0.446 1 1v-0.5c0-0.554-0.446-1-1-1z" fill="#fff" opacity=".1"/>
<rect x="12" y="2.5" width="11" height="9" rx=".5" ry=".5" opacity=".2"/>
<rect x="12" y="2" width="11" height="9" rx=".5" ry=".5" fill="#ebebeb"/>
</svg>
