<svg width="24" height="24" version="1.1" xmlns="http://www.w3.org/2000/svg">
<path d="m3 3c-0.554 0-1 0.446-1 1v16c0 0.554 0.446 1 1 1h18c0.554 0 1-0.446 1-1v-16c0-0.554-0.446-1-1-1h-18z" fill="#57b8ec"/>
<path d="m3 21c-0.554 0-1-0.446-1-1v-4h20v4c0 0.554-0.446 1-1 1z" fill="#106796"/>
<path d="m3 3c-0.554 0-1 0.446-1 1v0.5c0-0.554 0.446-1 1-1h18c0.554 0 1 0.446 1 1v-0.5c0-0.554-0.446-1-1-1z" fill="#fff" opacity=".1"/>
<rect x="3" y="17" width="8" height="3" rx=".638" ry=".772" fill="#fff" opacity=".2"/>
<rect x="12" y="17" width="8" height="3" rx=".638" ry=".772" fill="#fff" opacity=".2"/>
<path d="m2 20v0.5c0 0.554 0.446 1 1 1h18c0.554 0 1-0.446 1-1v-0.5c0 0.554-0.446 1-1 1h-18c-0.554 0-1-0.446-1-1z" opacity=".2"/>
<rect x="4" y="17" width="3" height="3" fill="#fff"/>
<rect x="13" y="17" width="3" height="3" fill="#fff"/>
</svg>
