<svg width="16" height="16" version="1.1" xmlns="http://www.w3.org/2000/svg">
<path d="m8 1c-3.0506 0-5.9194 1.0732-8 3l8 11 1-1.375v-2.625h1.0117c0.018221-1.6359 1.3445-3 2.9883-3 0.02881 0 0.05537 0.00893 0.08398 0.00977l2.916-4.0098c-2.081-1.9269-4.949-3-8-3z" fill="#666" opacity=".35"/>
<path d="m13 9c-1.108 0-2 0.9093-2 2.0293v0.9707h-1v4h6v-4h-1v-0.9707c0-1.12-0.892-2.0293-2-2.0293zm0 1c0.554 0 1 0.442 1 1v1h-2v-1c0-0.558 0.446-1 1-1z" color="#666666" fill="#666"/>
<path d="m8 4a8 8 0 0 0-6.0137 2.7324l6.0137 8.2676 1-1.375v-2.625h1.0117c0.018221-1.6359 1.3445-3 2.9883-3 0.02815 0 0.05417 0.00859 0.08203 0.00977 6.54e-4 2.76e-5 0.0013-1.92e-5 0.0019 0l0.92584-1.2754a8 8 0 0 0-6.0098-2.7344z" fill="#666"/>
</svg>
