<svg width="16" height="16" version="1.1" xmlns="http://www.w3.org/2000/svg">
 <defs>
  <style id="current-color-scheme" type="text/css">.ColorScheme-Text { color:#666666; } .ColorScheme-Highlight { color:#4285f4; } .ColorScheme-NeutralText { color:#ff9800; } .ColorScheme-PositiveText { color:#4caf50; } .ColorScheme-NegativeText { color:#f44336; }</style>
 </defs>
 <path class="ColorScheme-Text" d="m11 11v1c0 0.28 0.1 0.54 0.28 0.72l0.78 0.78-0.78 0.78c-0.18 0.19-0.28 0.45-0.28 0.72v1h1c0.28 0 0.54-0.1 0.72-0.28l0.78-0.78 0.78 0.78c0.18 0.18 0.45 0.28 0.72 0.28h1v-1c0-0.27-0.1-0.53-0.28-0.72l-0.78-0.78 0.78-0.78c0.18-0.18 0.28-0.44 0.28-0.72v-1h-1c-0.27 0-0.54 0.1-0.72 0.28l-0.78 0.79-0.78-0.79c-0.18-0.18-0.44-0.28-0.72-0.28z" fill="#666"/>
 <path d="m8 2c-3.0506 0-5.9194 1.0732-8 3l8 9 2-2.25v-1.75h-5v-4h1v-0.96875c0-1.12 0.892-2.0312 2-2.0312s2 0.91125 2 2.0312v0.96875h1v4h0.55469l4.4453-5c-2.081-1.9269-4.949-3-8-3z" fill="#666" opacity=".35"/>
 <path d="m8 4c0.554 0 1 0.442 1 1v1h-2v-1c0-0.558 0.446-1 1-1z" color="#666666" fill="#666" opacity=".35"/>
</svg>
