<svg width="16" height="16" version="1.1" xmlns="http://www.w3.org/2000/svg">
<defs>
<style id="current-color-scheme" type="text/css">.ColorScheme-Text { color:#666666; } .ColorScheme-Highlight { color:#4285f4; }</style>
</defs>
<path d="m13.5 11c-0.25 0-0.4437-0.001481-0.63281 0.019531-0.18911 0.021012-0.41535 0.071602-0.5957 0.25195-0.18035 0.18035-0.23094 0.4066-0.25195 0.5957-0.021012 0.18911-0.019531 0.38281-0.019531 0.63281v2c0 0.25-0.005989 0.44844 0.029297 0.66016 0.035286 0.21172 0.1591 0.48302 0.38086 0.63086 0.44352 0.29568 0.83984 0.20898 1.5898 0.20898s1.1463 0.086693 1.5898-0.20898c0.22176-0.14784 0.34557-0.41914 0.38086-0.63086 0.035286-0.21172 0.029297-0.41016 0.029297-0.66016v-1a0.50005 0.50005 0 0 0-0.5-0.5h-1.5v1h1v0.5c0 0.23227-0.005713 0.38241-0.015625 0.46094 0.025826-0.031588-0.27117 0.039062-0.98438 0.039062s-1.0102-0.07065-0.98438-0.039062c-0.009912-0.078529-0.015625-0.22867-0.015625-0.46094v-2c0-0.23322 0.003135-0.39131 0.011719-0.48828 0.096975-0.008584 0.25506-0.011719 0.48828-0.011719h2.5v-1h-2.5z" color="#666666" color-rendering="auto" dominant-baseline="auto" fill="#666" image-rendering="auto" shape-rendering="auto" solid-color="#000000" stop-color="#000000" style="font-feature-settings:normal;font-variant-alternates:normal;font-variant-caps:normal;font-variant-east-asian:normal;font-variant-ligatures:normal;font-variant-numeric:normal;font-variant-position:normal;font-variation-settings:normal;inline-size:0;isolation:auto;mix-blend-mode:normal;shape-margin:0;shape-padding:0;text-decoration-color:#000000;text-decoration-line:none;text-decoration-style:solid;text-indent:0;text-orientation:mixed;text-transform:none;white-space:normal"/>
</svg>
