<svg width="16" height="16" version="1.1" xmlns="http://www.w3.org/2000/svg">
<defs>
<style id="current-color-scheme" type="text/css">.ColorScheme-Text { color:#666666; } .ColorScheme-Highlight { color:#4285f4; } .ColorScheme-NeutralText { color:#ff9800; } .ColorScheme-PositiveText { color:#4caf50; } .ColorScheme-NegativeText { color:#f44336; }</style>
</defs>
<path class="ColorScheme-Text" d="m7.467 2a5.3333 5.4545 0 0 0-5.0479 3.7073 4.2667 4.3636 0 0 0-2.4188 3.9287 4.2667 4.3636 0 0 0 4.2667 4.364 4.2667 4.3636 0 0 0 2.835-1.111 5.3333 5.4545 0 0 0 0.365 0.02 5.3333 5.4545 0 0 0 2.254-0.518 4.2667 4.3636 0 0 0 2.013 0.518 4.2667 4.3636 0 0 0 4.266-4.365 4.2667 4.3636 0 0 0-4.267-4.3632 4.2667 4.3636 0 0 0-9e-3 0 5.3333 5.4545 0 0 0-4.258-2.1818z" fill="#666"/>
</svg>
