<svg width="22" height="22" version="1" xmlns="http://www.w3.org/2000/svg">
 <rect x="4" y="1" width="14" height="12" rx=".75" ry=".75" fill="#5294e2"/>
 <rect x="3" y="3" width="16" height="12" rx=".75" ry=".75" fill="#89e058"/>
 <rect x="2" y="5" width="18" height="12" rx=".75" ry=".75" fill="#ffcd54"/>
 <rect x="1" y="7.5" width="20" height="14" rx="1" ry="1" opacity=".2"/>
 <rect x="1" y="7" width="20" height="14" rx="1" ry="1" fill="#57b8ec"/>
 <rect x="8" y="12.5" width="6" height="2" rx=".5" ry=".5" opacity=".2"/>
 <rect x="8" y="12" width="6" height="2" rx=".5" ry=".5" fill="#ececec"/>
 <path d="m4.75 1c-0.4155 0-0.75 0.3345-0.75 0.75v0.5c0-0.4155 0.3345-0.75 0.75-0.75h12.5c0.4155 0 0.75 0.3345 0.75 0.75v-0.5c0-0.4155-0.3345-0.75-0.75-0.75z" fill="#fff" opacity=".1"/>
 <path d="m3.75 3c-0.4155 0-0.75 0.3345-0.75 0.75v0.5c0-0.4155 0.3345-0.75 0.75-0.75h14.5c0.4155 0 0.75 0.3345 0.75 0.75v-0.5c0-0.4155-0.3345-0.75-0.75-0.75z" fill="#fff" opacity=".1"/>
 <path d="m2.75 5c-0.4155 0-0.75 0.3345-0.75 0.75v0.5c0-0.4155 0.3345-0.75 0.75-0.75h16.5c0.4155 0 0.75 0.3345 0.75 0.75v-0.5c0-0.4155-0.3345-0.75-0.75-0.75z" fill="#fff" opacity=".1"/>
 <path d="m3.75 2.5c-0.4155 0-0.75 0.3345-0.75 0.75v0.5c0-0.4155 0.3345-0.75 0.75-0.75h14.5c0.4155 0 0.75 0.3345 0.75 0.75v-0.5c0-0.4155-0.3345-0.75-0.75-0.75z" opacity=".1"/>
 <path d="m2.75 4.5c-0.4155 0-0.75 0.3345-0.75 0.75v0.5c0-0.4155 0.3345-0.75 0.75-0.75h16.5c0.4155 0 0.75 0.3345 0.75 0.75v-0.5c0-0.4155-0.3345-0.75-0.75-0.75z" opacity=".1"/>
</svg>
