<svg width="22" height="22" version="1" xmlns="http://www.w3.org/2000/svg">
 <rect x="2" y="1" width="18" height="12" rx=".75" ry=".75" fill="#5294e2"/>
 <rect x="2" y="2.5" width="18" height="12" rx=".75" ry=".75" opacity=".1"/>
 <rect x="2" y="3" width="18" height="12" rx=".75" ry=".75" fill="#89e058"/>
 <rect x="2" y="4.5" width="18" height="12" rx=".75" ry=".75" opacity=".1"/>
 <rect x="2" y="5" width="18" height="12" rx=".75" ry=".75" fill="#ffcd54"/>
 <rect x="1" y="7.5" width="20" height="14" rx="1" ry="1" opacity=".2"/>
 <rect x="1" y="7" width="20" height="14" rx="1" ry="1" fill="#57b8ec"/>
 <rect x="8" y="12.5" width="6" height="2" rx=".5" ry=".5" opacity=".2"/>
 <rect x="8" y="12" width="6" height="2" rx=".5" ry=".5" fill="#ececec"/>
 <path d="m2.75 1c-0.4155 0-0.75 0.3345-0.75 0.75v0.5c0-0.4155 0.3345-0.75 0.75-0.75h16.5c0.416 0 0.75 0.3345 0.75 0.75v-0.5c0-0.4155-0.334-0.75-0.75-0.75h-16.5z" fill="#fff" opacity=".1"/>
 <path d="m2.75 3c-0.4155 0-0.75 0.3345-0.75 0.75v0.5c0-0.4155 0.3345-0.75 0.75-0.75h16.5c0.416 0 0.75 0.3345 0.75 0.75v-0.5c0-0.4155-0.334-0.75-0.75-0.75z" fill="#fff" opacity=".1"/>
 <path d="m2.75 5c-0.4155 0-0.75 0.3345-0.75 0.75v0.5c0-0.4155 0.3345-0.75 0.75-0.75h16.5c0.416 0 0.75 0.3345 0.75 0.75v-0.5c0-0.4155-0.334-0.75-0.75-0.75z" fill="#fff" opacity=".1"/>
 <g transform="translate(-2,-2)">
  <circle cx="18" cy="18" r="6" fill="#48aeff"/>
  <rect x="15" y="15" width="2" height="2" rx=".25" ry=".25" fill="#fff"/>
  <rect x="19" y="15" width="2" height="2" rx=".25" ry=".25" fill="#fff"/>
  <rect x="19" y="19" width="2" height="2" rx=".25" ry=".25" fill="#fff"/>
  <rect x="15" y="19" width="2" height="2" rx=".25" ry=".25" fill="#fff"/>
 </g>
</svg>
