<svg width="16" height="16" version="1.1" xmlns="http://www.w3.org/2000/svg">
<defs>
<style id="current-color-scheme" type="text/css">.ColorScheme-Text { color:#dfdfdf; } .ColorScheme-Highlight { color:#4285f4; } .ColorScheme-NeutralText { color:#ff9800; } .ColorScheme-PositiveText { color:#4caf50; } .ColorScheme-NegativeText { color:#f44336; }</style>
</defs>
<path class="ColorScheme-Text" d="m8 0a3 3 0 0 0-3 3v2h-1c-0.554 0-1 0.446-1 1v4c0 0.554 0.446 1 1 1h8c0.554 0 1-0.446 1-1v-4c0-0.554-0.446-1-1-1h-1v-2a3 3 0 0 0-3-3zm0 2c0.57597 0 1 0.42403 1 1v2h-2v-2c0-0.57597 0.42403-1 1-1zm-1 10v1h-2v1 2h6v-2-1h-2v-1h-2zm-6 2c-0.554 0-1 0.446-1 1s0.446 1 1 1h3v-2h-3zm11 0v2h3c0.554 0 1-0.446 1-1s-0.446-1-1-1h-3z" fill="#666"/>
</svg>
