<svg width="42" height="42" version="1" xmlns="http://www.w3.org/2000/svg">
 <circle cx="21" cy="21" r="20" fill="#57b8ec"/>
 <path d="m21 1a20 20 0 0 0-20 20 20 20 0 0 0 0.0215 0.582 20 20 0 0 1 19.978-19.582 20 20 0 0 1 19.979 19.418 20 20 0 0 0 0.021-0.418 20 20 0 0 0-20-20z" fill="#fff" opacity=".2"/>
 <path d="M 40.979,21.418 A 20,20 0 0 1 21,41 20,20 0 0 1 1.022,21.582 20,20 0 0 0 1,22 20,20 0 0 0 21,42 20,20 0 0 0 41,22 20,20 0 0 0 40.979,21.418 Z" opacity=".2"/>
 <path d="m21 9c-2.762 0-5 2.239-5 5s2.238 5 5 5 5-2.239 5-5-2.238-5-5-5zm0 13c-9.999 6e-3 -10 6.4-10 6.4v2.6s1.8461 4 10 4 10-4 10-4v-2.6s0-6.404-9.998-6.4z" opacity=".2"/>
 <path d="m21 8c-2.762 0-5 2.239-5 5s2.238 5 5 5 5-2.239 5-5-2.238-5-5-5zm0 13c-9.999 6e-3 -10 6.4-10 6.4v2.6s1.8461 4 10 4 10-4 10-4v-2.6s0-6.404-9.998-6.4z" fill="#fff"/>
</svg>
