<svg width="16" height="16" version="1" xmlns="http://www.w3.org/2000/svg">
 <circle cx="8" cy="8" r="8" fill="#ff5722"/>
 <path d="m8 3c-1.4773 0-3 1.2746-3 2.8574v1.1426h-0.33398c-0.36933 0-0.66602 0.3035-0.66602 0.69922v4.5859c0 0.39572 0.29668 0.71484 0.66602 0.71484h6.668c0.36933 0 0.66602-0.31913 0.66602-0.71484v-4.5859c0-0.39571-0.29668-0.69922-0.66602-0.69922h-0.33398v-1.1426c0-1.5829-1.5227-2.8574-3-2.8574zm0 2c0.554 0 1 0.49577 1 1.1113v0.88867h-2v-0.88867c0-0.61556 0.446-1.1113 1-1.1113z" fill="#fff"/>
</svg>
