<svg width="16" height="16" version="1" xmlns="http://www.w3.org/2000/svg">
 <rect transform="matrix(0,-1,-1,0,0,0)" x="-14" y="-15" width="12" height="14" rx=".819" ry=".75" fill="#57b8ec"/>
 <path d="m15 13.182v-10.364c0-0.45327-0.3345-0.81818-0.75-0.81818h-6.25v12h6.25c0.4155 0 0.75-0.36491 0.75-0.81818z" fill="#fff" opacity=".2"/>
 <path d="m15 8v-5.1818c0-0.45327-0.3345-0.81818-0.75-0.81818h-12.5c-0.4155 0-0.75 0.36491-0.75 0.81818v5.1818z" fill="#fff" opacity=".1"/>
 <rect transform="matrix(0,-1,-1,0,0,0)" x="-8" y="-16" width="7" height="8" rx=".292" ry=".267" fill="#ebebeb"/>
</svg>
