<svg width="48" height="48" version="1.1" xmlns="http://www.w3.org/2000/svg">
 <rect x="4" y="7" width="40" height="36" rx="2" ry="2" opacity=".2"/>
 <path d="m4 9.9v30.1c0 1.108 0.892 2 2 2h36c1.108 0 2-0.892 2-2v-30.1z" fill="#57b8ec"/>
 <path d="m6 6c-1.108 0-2 0.892-2 2v2h40v-2c0-1.108-0.892-2-2-2z" fill="#106796"/>
 <path d="m16 38c-1.108 0-2 0.892-2 2v2h20v-2c0-1.108-0.892-2-2-2z" fill="#106796"/>
 <path d="m6 6c-1.108 0-2 0.892-2 2v1c0-1.108 0.892-2 2-2h36c1.108 0 2 0.892 2 2v-1c0-1.108-0.892-2-2-2z" fill="#fff" opacity=".1"/>
</svg>
