<svg width="48" height="48" version="1.1" xmlns="http://www.w3.org/2000/svg">
<path d="m6 6c-1.108 0-2 0.892-2 2v31c0 1.108 0.892 2 2 2h36c1.108 0 2-0.892 2-2v-31c0-1.108-0.892-2-2-2z" fill="#57b8ec"/>
<rect x="4" y="33" width="40" height="8" rx="2" ry="2" opacity=".1"/>
<rect x="4" y="34" width="40" height="8" rx="2" ry="2" fill="#106796"/>
<path d="m6 6c-1.108 0-2 0.892-2 2v1c0-1.108 0.892-2 2-2h36c1.108 0 2 0.892 2 2v-1c0-1.108-0.892-2-2-2z" fill="#fff" opacity=".2"/>
<path d="m4 40v1c0 1.108 0.892 2 2 2h36c1.108 0 2-0.892 2-2v-1c0 1.108-0.892 2-2 2h-36c-1.108 0-2-0.892-2-2z" opacity=".2"/>
<rect x="19" y="34" width="10" height="8" rx="2" ry="2" fill="#fff" opacity=".2"/>
<rect x="7" y="34" width="10" height="8" rx="2" ry="2" fill="#fff" opacity=".1"/>
<rect x="31" y="34" width="10" height="8" rx="2" ry="2" fill="#fff" opacity=".1"/>
<path d="m24 37a5 5 0 0 0-4.8398 3.7852c0.30435 0.71483 1.0114 1.2148 1.8398 1.2148h6c0.82849 0 1.5355-0.50001 1.8398-1.2148a5 5 0 0 0-4.8398-3.7852z" fill="#fff" opacity=".2"/>
<path d="m24 40a2 2 0 0 0-2 2h4a2 2 0 0 0-2-2z" fill="#fff" opacity=".2"/>
<path d="m12 14v13.5c0 0.831 0.669 1.5 1.5 1.5h21c0.831 0 1.5-0.669 1.5-1.5v-13.5z" opacity=".2"/>
<path d="m12 13.9v12.6c0 0.831 0.669 1.5 1.5 1.5h21c0.831 0 1.5-0.669 1.5-1.5v-12.6z" fill="#fff"/>
<path d="m13.5 10h21c0.831 0 1.5 0.669 1.5 1.5v2.5h-24v-2.5c0-0.831 0.669-1.5 1.5-1.5z" fill="#106796"/>
<path d="m24 37a5 5 0 0 0-4.8398 3.7852c0.05431 0.12756 0.13454 0.23931 0.21289 0.35156a5 5 0 0 1 4.627-3.1367 5 5 0 0 1 4.625 3.1406c0.079425-0.11326 0.15996-0.22656 0.21484-0.35547a5 5 0 0 0-4.8398-3.7852z" fill="#fff" opacity=".2"/>
<path d="m24 40a2 2 0 0 0-2 2h0.27148a2 2 0 0 1 1.7285-1 2 2 0 0 1 1.7305 1h0.26953a2 2 0 0 0-2-2z" fill="#fff" opacity=".2"/>
</svg>
