<svg width="48" height="48" version="1" xmlns="http://www.w3.org/2000/svg">
 <rect x="6" y="4" width="36" height="24" rx="1.5" ry="1.5" fill="#5294e2"/>
 <rect x="6" y="7" width="36" height="24" rx="1.5" ry="1.5" opacity=".1"/>
 <rect x="6" y="8" width="36" height="24" rx="1.5" ry="1.5" fill="#89e058"/>
 <rect x="6" y="11" width="36" height="24" rx="1.5" ry="1.5" opacity=".1"/>
 <rect x="6" y="12" width="36" height="24" rx="1.5" ry="1.5" fill="#ffcd54"/>
 <rect x="4" y="17" width="40" height="28" rx="2" ry="2" opacity=".2"/>
 <rect x="4" y="16" width="40" height="28" rx="2" ry="2" fill="#57b8ec"/>
 <rect x="17" y="28" width="14" height="4" rx="1" ry="1" opacity=".2"/>
 <rect x="17" y="27" width="14" height="4" rx="1" ry="1" fill="#ececec"/>
 <path d="m7.5 4c-0.831 0-1.5 0.669-1.5 1.5v1c0-0.831 0.669-1.5 1.5-1.5h33c0.831 0 1.5 0.669 1.5 1.5v-1c0-0.831-0.669-1.5-1.5-1.5h-33z" fill="#fff" opacity=".1"/>
 <path d="m7.5 8c-0.831 0-1.5 0.669-1.5 1.5v1c0-0.831 0.669-1.5 1.5-1.5h33c0.831 0 1.5 0.669 1.5 1.5v-1c0-0.831-0.669-1.5-1.5-1.5z" fill="#fff" opacity=".1"/>
 <path d="m7.5 12c-0.831 0-1.5 0.669-1.5 1.5v1c0-0.831 0.669-1.5 1.5-1.5h33c0.831 0 1.5 0.669 1.5 1.5v-1c0-0.831-0.669-1.5-1.5-1.5z" fill="#fff" opacity=".1"/>
 <circle cx="36" cy="36" r="12" opacity=".2"/>
 <circle cx="36" cy="35" r="12" fill="#48aeff"/>
 <rect x="30" y="29" width="5" height="5" rx=".5" ry=".5" fill="#fff"/>
 <rect x="37" y="29" width="5" height="5" rx=".5" ry=".5" fill="#fff"/>
 <rect x="37" y="36" width="5" height="5" rx=".5" ry=".5" fill="#fff"/>
 <rect x="30" y="36" width="5" height="5" rx=".5" ry=".5" fill="#fff"/>
</svg>
