<svg width="24" height="24" version="1.1" viewBox="0 0 48 48" xmlns="http://www.w3.org/2000/svg">
<path d="m4 10v30c0 1.108 0.892 2 2 2h36c1.108 0 2-0.892 2-2v-30z" fill="#57b8ec"/>
<path d="m6 6c-1.108 0-2 0.892-2 2v2h40v-2c0-1.108-0.892-2-2-2z" fill="#106796"/>
<path d="m6 6c-1.108 0-2 0.892-2 2v1c0-1.108 0.892-2 2-2h36c1.108 0 2 0.892 2 2v-1c0-1.108-0.892-2-2-2z" fill="#fff" opacity=".1"/>
<path d="m16 38c-1.108 0-2 0.892-2 2v2h20v-2c0-1.108-0.892-2-2-2h-16z" fill="#106796"/>
<path d="m4 40v1c0 1.108 0.892 2 2 2h36c1.108 0 2-0.892 2-2v-1c0 1.108-0.892 2-2 2h-36c-1.108 0-2-0.892-2-2z" opacity=".2"/>
</svg>
