<svg width="24" height="24" version="1.1" xmlns="http://www.w3.org/2000/svg">
<path d="m3 3c-0.554 0-1 0.446-1 1v15h20v-15c0-0.554-0.446-1-1-1z" fill="#57b8ec"/>
<path d="m3 21c-0.554 0-1-0.446-1-1v-1h20v1c0 0.554-0.446 1-1 1z" fill="#106796"/>
<path d="m3 3c-0.554 0-1 0.446-1 1v0.5c0-0.554 0.446-1 1-1h18c0.554 0 1 0.446 1 1v-0.5c0-0.554-0.446-1-1-1z" fill="#fff" opacity=".1"/>
<path d="m2 20v0.5c0 0.554 0.446 1 1 1h18c0.554 0 1-0.446 1-1v-0.5c0 0.554-0.446 1-1 1h-18c-0.554 0-1-0.446-1-1z" opacity=".2"/>
<rect x="8" y="9.5" width="8" height="6" rx=".5" ry=".5" opacity=".2"/>
<path d="m8 10v4.5c0 0.277 0.223 0.5 0.5 0.5h7c0.277 0 0.5-0.223 0.5-0.5v-4.5z" fill="#fff"/>
<path d="m8.5 9h7c0.277 0 0.5 0.223 0.5 0.5v0.5h-8v-0.5c0-0.277 0.223-0.5 0.5-0.5z" fill="#106796"/>
<g transform="translate(-1,-1.5)" opacity=".2">
<rect x="4" y="6" width="2" height="2" rx=".25" ry=".25"/>
<rect x="4" y="9" width="2" height="2" rx=".25" ry=".25"/>
<rect x="4" y="12" width="2" height="2" rx=".25" ry=".25"/>
<rect x="4" y="15" width="2" height="2" rx=".25" ry=".25"/>
</g>
<rect x="3" y="4" width="2" height="2" rx=".25" ry=".25" fill="#fff"/>
<rect x="3" y="7" width="2" height="2" rx=".25" ry=".25" fill="#fff"/>
<rect x="3" y="10" width="2" height="2" rx=".25" ry=".25" fill="#fff"/>
<rect x="3" y="13" width="2" height="2" rx=".25" ry=".25" fill="#fff"/>
</svg>
