<svg width="24" height="24" version="1" xmlns="http://www.w3.org/2000/svg">
<rect x="2" y="3.5" width="20" height="18" rx="1" ry="1" opacity=".2"/>
<rect x="2" y="3" width="20" height="18" rx="1" ry="1" fill="#57b8ec"/>
<rect x="13" y="6.5" width="10" height="7" rx=".5" ry=".5" opacity=".2"/>
<rect x="13" y="6" width="10" height="7" rx=".5" ry=".5" fill="#ebebeb"/>
<rect x="1" y="6.5" width="10" height="7" rx=".5" ry=".5" opacity=".2"/>
<rect x="1" y="6" width="10" height="7" rx=".5" ry=".5" fill="#ebebeb"/>
<rect x="7" y="15.5" width="10" height="7" rx=".5" ry=".5" opacity=".2"/>
<rect x="7" y="15" width="10" height="7" rx=".5" ry=".5" fill="#ebebeb"/>
<path d="m3 3c-0.554 0-1 0.446-1 1v0.5c0-0.554 0.446-1 1-1h18c0.554 0 1 0.446 1 1v-0.5c0-0.554-0.446-1-1-1z" fill="#fff" opacity=".2"/>
</svg>
