<svg width="24" height="24" version="1.1" xmlns="http://www.w3.org/2000/svg">
<path d="m3 3c-0.554 0-1 0.446-1 1v13h20v-13c0-0.554-0.446-1-1-1h-18z" fill="#57b8ec"/>
<path d="m3 21c-0.554 0-1-0.446-1-1v-3h20v3c0 0.554-0.446 1-1 1z" fill="#106796"/>
<path d="m3 3c-0.554 0-1 0.446-1 1v0.5c0-0.554 0.446-1 1-1h18c0.554 0 1 0.446 1 1v-0.5c0-0.554-0.446-1-1-1z" fill="#fff" opacity=".1"/>
<circle cx="13" cy="19.5" r="1" opacity=".2"/>
<circle cx="13" cy="19" r="1" fill="#fff" opacity=".72"/>
<circle cx="16" cy="19.5" r="1" opacity=".2"/>
<circle cx="16" cy="19" r="1" fill="#fff" opacity=".72"/>
<circle cx="19" cy="19.5" r="1" opacity=".2"/>
<circle cx="19" cy="19" r="1" fill="#fff" opacity=".72"/>
<path d="m2 20v0.5c0 0.554 0.446 1 1 1h18c0.554 0 1-0.446 1-1v-0.5c0 0.554-0.446 1-1 1h-18c-0.554 0-1-0.446-1-1z" opacity=".2"/>
</svg>
