<svg width="84" height="84" version="1" xmlns="http://www.w3.org/2000/svg">
 <path d="M 81.958,41.836 A 40,40 0 0 1 42,81 40,40 0 0 1 2.044,42.164 40,40 0 0 0 2,43 40,40 0 0 0 42,83 40,40 0 0 0 82,43 40,40 0 0 0 81.958,41.836 Z" opacity=".2"/>
 <circle cx="42" cy="42" r="40" fill="#57b8ec"/>
 <path d="m41.998 2a40 40 0 0 0-39.998 40 40 40 0 0 0 0.023438 0.63867 40 40 0 0 1 39.975-39.639h0.001953a40 40 0 0 1 39.982 39.303 40 40 0 0 0 0.015625-0.30273 40 40 0 0 0-39.998-40h-0.001953z" fill="#fff" opacity=".2"/>
 <path d="m42 17c-5.524 0-10 4.478-10 10s4.476 10 10 10 10-4.478 10-10-4.476-10-10-10zm0 26c-19.998 0.012-20 12.8-20 12.8v5.2s3.6923 8 20 8 20-8 20-8v-5.2s0-12.808-19.996-12.8z" opacity=".2"/>
 <path d="m42 16c-5.524 0-10 4.478-10 10s4.476 10 10 10 10-4.478 10-10-4.476-10-10-10zm0 26c-19.998 0.012-20 12.8-20 12.8v5.2s3.6923 8 20 8 20-8 20-8v-5.2s0-12.808-19.996-12.8z" fill="#fff"/>
</svg>
