<svg width="16" height="16" version="1.1" xmlns="http://www.w3.org/2000/svg">
<defs>
<style id="current-color-scheme" type="text/css">.ColorScheme-Text { color:#666666; } .ColorScheme-Highlight { color:#4285f4; }</style>
</defs>
<path class="ColorScheme-Text" d="m0 10.057 3.0078 1.736c-5e-3 0.069-0.0076 0.138-0.0078 0.207 0 1.657 1.3432 3 3 3 1.6569 0 3-1.343 3-3-7e-4 -0.095-0.0059-0.189-0.0156-0.283l4.3766-2.8303c1.55-0.3935 2.636-1.7876 2.639-3.3867 0-1.933-1.567-3.5-3.5-3.5-1.717 1e-3 -3.1792 1.2468-3.4531 2.9414l-2.4785 4.1152c-0.1873-0.0369-0.3776-0.0558-0.5684-0.0566-0.4528 1e-3 -0.8995 0.1045-1.3066 0.3027l-4.6934-2.7099m12.5-3.5928c1.381 0 2.5 1.1193 2.5 2.5s-1.119 2.5-2.5 2.5-2.5-1.1193-2.5-2.5 1.119-2.5 2.5-2.5zm0 1c-0.828 0-1.5 0.6716-1.5 1.5s0.672 1.5 1.5 1.5 1.5-0.6716 1.5-1.5-0.672-1.5-1.5-1.5zm-6.5 6c1.1046 0 2 0.895 2 2s-0.8954 2-2 2c-0.9536-1e-3 -1.7737-0.676-1.959-1.611l0.7051 0.408c0.7197 0.415 1.6333 0.171 2.0488-0.549s0.1709-1.633-0.5488-2.049l-0.3379-0.195c0.0306-2e-3 0.0612-3e-3 0.0918-4e-3z" fill="#ee923a"/>
</svg>
