<svg width="16" height="16" version="1.1" xmlns="http://www.w3.org/2000/svg">
<defs>
<style id="current-color-scheme" type="text/css">.ColorScheme-Text { color:#666666; } .ColorScheme-Highlight { color:#4285f4; }</style>
</defs>
<path d="m6.9668 1c-0.4763 0.015967-0.87516 0.36579-0.95312 0.83594l-1.209 7.2559-0.83398-3.334c-0.11124-0.44549-0.51154-0.75799-0.9707-0.75781h-3v2h2.2188l1.8105 7.2422c0.26254 1.0532 1.7793 0.9926 1.957-0.07813l1.3672-8.2031 1.2051 3.375c0.32596 0.90666 1.6195 0.87339 1.8984-0.048824l0.5918-1.9746 1.002 3.0039c0.13627 0.40844 0.51865 0.68382 0.94922 0.68359h3v-2h-2.2793l-1.7715-5.3164c-0.3095-0.92531-1.6253-0.90509-1.9062 0.029297l-0.625 2.084-1.4766-4.1328c-0.14591-0.40973-0.5399-0.67818-0.97461-0.66406z" color="#666666" color-rendering="auto" dominant-baseline="auto" fill="#8e8e8e" image-rendering="auto" shape-rendering="auto" solid-color="#000000" stop-color="#000000" style="font-feature-settings:normal;font-variant-alternates:normal;font-variant-caps:normal;font-variant-east-asian:normal;font-variant-ligatures:normal;font-variant-numeric:normal;font-variant-position:normal;font-variation-settings:normal;inline-size:0;isolation:auto;mix-blend-mode:normal;shape-margin:0;shape-padding:0;text-decoration-color:#000000;text-decoration-line:none;text-decoration-style:solid;text-indent:0;text-orientation:mixed;text-transform:none;white-space:normal"/>
</svg>
