<svg width="16" height="16" version="1.1" xmlns="http://www.w3.org/2000/svg">
<defs>
<style id="current-color-scheme" type="text/css">.ColorScheme-Text { color:#666666; } .ColorScheme-Highlight { color:#4285f4; }</style>
</defs>
<path class="ColorScheme-Text" d="m2.9102 1.0352c-0.49829 0.0427-0.8373 0.47989-0.9375 0.9375-0.29175 0.89152-0.5919 1.7934-0.875 2.6875l-0.09375 0.375v8c0 0.554 0.446 1 1 1h12c0.554 0 1-0.446 1-1v-8l-0.125-0.46875c-0.33823-0.98973-0.64265-2.0178-1-3-0.21398-0.43813-0.7019-0.57677-1.1562-0.53125h-9.8125zm0.81836 2h8.5332c0.10804 0.32301 0.22204 0.66784 0.33203 1h-9.1914c0.10875-0.33377 0.21582-0.66405 0.32617-1zm3.2754 3h2v3h1.75l-2.75 3-2.75-3h1.75z" fill="#e4e4e4"/>
</svg>
