<svg width="16" height="16" version="1.1" xmlns="http://www.w3.org/2000/svg">
<defs>
<style id="current-color-scheme" type="text/css">.ColorScheme-Text { color:#666666; } .ColorScheme-Highlight { color:#4285f4; }</style>
</defs>
<path class="ColorScheme-Text" d="m4.2812 4.2012c-0.0246 3e-3 -0.0517 0.0087-0.0703 0.0273l-0.8535 0.8477c-0.0358 0.0357-0.04 0.0896-0.0137 0.1328l0.9083 1.4883c-0.2134 0.3464-0.379 0.7236-0.4903 1.125l-1.6738 0.3457c-0.0508 0.0104-0.0879 0.0593-0.0879 0.1113v1.1973c0 0.0507 0.0386 0.0937 0.0879 0.1054l1.623 0.3907c0.1022 0.4513 0.2748 0.8763 0.5039 1.2633l-0.9453 1.43c-0.0286 0.044-0.0233 0.102 0.0137 0.139l0.8535 0.847c0.036 0.036 0.0916 0.04 0.1348 0.014l1.4765-0.891c0.3647 0.218 0.7625 0.385 1.1856 0.491l0.3457 1.646c0.0108 0.051 0.0531 0.088 0.1055 0.088h1.207c0.0504 0 0.0935-0.033 0.1055-0.082l0.4101-1.658c0.4265-0.111 0.8236-0.289 1.1896-0.514l1.482 0.965c0.044 0.028 0.102 0.023 0.139-0.014l0.85-0.845c0.036-0.036 0.044-0.092 0.017-0.135l-0.58-0.947-0.189 0.058-0.075-0.027-1.212-1.559c-0.487 1.07-1.5537 1.757-2.729 1.758-1.6569 0-3-1.343-3-3 1e-3 -1.0293 0.5296-1.9863 1.4004-2.5352v-1.5898c-0.2232 0.0829-0.3699 0.1843-0.5742 0.3008l-1.4766-0.959c-0.0219-0.0144-0.044-0.018-0.0684-0.0156zm2.7188-2.8023v8.5128l1.9944-0.3116v-3.6l2.8056 3.9999 2.2-1-3-3.3999 3-3.6001-2.2-1-2.8056 4.2001 0.0056-4.2001z" fill="#e2b322"/>
</svg>
