<svg width="16" height="16" version="1.1" xmlns="http://www.w3.org/2000/svg">
<defs>
<style id="current-color-scheme" type="text/css">.ColorScheme-Text { color:#666666; } .ColorScheme-Highlight { color:#4285f4; }</style>
</defs>
<path class="ColorScheme-Text" d="m8.1191 1.0156c-0.36068-0.019673-0.74681-0.01345-1.1602 0.019531-6.5297 0.5256-4.7972 7.4241-4.8945 9.7344-0.0862 1.2221-0.49133 2.716-1.0645 4.2363h1.7637c0.18137-0.64425 0.31552-1.2812 0.37305-1.8887 0.10639 0.0742 0.22032 0.14413 0.3418 0.21289 0.19767 0.11646 0.367 0.27163 0.54688 0.43555 0.42032 0.38306 0.89676 0.81867 1.8281 0.87305 0.0625 4e-3 0.12595 0.0039 0.1875 0.0039 0.94194 0 1.5858-0.41293 2.1035-0.74414 0.24801-0.15882 0.46245-0.29548 0.66406-0.36133 0.57299-0.17937 1.0731-0.46929 1.4473-0.83789 0.0585-0.0575 0.11323-0.11549 0.16406-0.17578 0.20844 0.76393 0.4938 1.6226 0.81055 2.4805h3.7695c-0.90475-1.3976-1.8374-2.7664-1.8184-4.5137h-2e-3c0.03572-3.2388 0.34968-9.1795-5.0605-9.4746zm0.33398 5.1152c1.0137-0.0275 1.8582 1.0081 1.8848 2.3125 0.012 0.58991-0.14652 1.1335-0.41602 1.5547-0.0601-0.0302-0.12228-0.058938-0.1875-0.085938-0.30223-0.12928-0.54506-0.21708-0.74609-0.28711 0.11099-0.21727 0.18118-0.48703 0.1875-0.78125v-0.00195c0.0154-0.71608-0.34584-1.2977-0.80664-1.2988-0.46088-1e-3 -0.84789 0.57893-0.86328 1.2949-5.199e-4 0.0234-2.998e-4 0.047112 0 0.070312-0.28385-0.13054-0.56269-0.22477-0.83594-0.2832-9.998e-4 -0.0269-0.00391-0.054931-0.00391-0.082031-0.0265-1.3045 0.77327-2.3846 1.7871-2.4121zm-4.5527 0.36133c0.73025-0.0425 1.3746 0.83744 1.4395 1.9648 3e-3 0.0608 0.00586 0.12206 0.00586 0.18164-0.23138 0.0582-0.43991 0.14193-0.62695 0.24023-7.099e-4 -8e-3 -9.531e-4 -0.016991-0.00195-0.025391-0.0625-0.63993-0.40438-1.1239-0.76367-1.0801-0.3593 0.0438-0.59957 0.59833-0.53711 1.2383v0.00195c0.0272 0.27904 0.10699 0.52796 0.21875 0.7168-0.0278 0.0219-0.10674 0.078341-0.19727 0.14453-0.0679 0.0496-0.15028 0.11015-0.25 0.18359-0.27182-0.35678-0.45892-0.86885-0.49219-1.4473-0.0649-1.1274 0.47483-2.0767 1.2051-2.1191zm2.125 2.8574c0.52505 0 1.1056 0.20366 1.7246 0.60156 0.29154 0.18971 0.54595 0.27581 0.86719 0.38672 0.22088 0.0763 0.47135 0.16306 0.80664 0.30664l0.00391 2e-3c0.31278 0.12852 0.68289 0.36408 0.66602 0.75195-0.026 0.5959-0.8052 1.1559-1.5254 1.3809l-0.00391 2e-3c-0.29939 0.0971-0.56498 0.26639-0.84766 0.44727-0.47485 0.30379-0.96654 0.61914-1.6758 0.61914-0.0465 0-0.093745-9.06e-4 -0.14062-0.0039-0.64963-0.038-0.95514-0.31547-1.3398-0.66602-0.20292-0.18498-0.41112-0.37649-0.68164-0.53516l-0.00586-2e-3c-0.58387-0.32955-0.94751-0.74066-0.9707-1.0977-0.0115-0.17746 0.066965-0.32955 0.23438-0.45508 0.36417-0.27303 0.60812-0.45224 0.76953-0.57031 0.17924-0.13109 0.23335-0.17086 0.27344-0.20898 0.0286-0.0272 0.06045-0.05744 0.09375-0.08984 0.33422-0.32503 0.89354-0.86914 1.752-0.86914zm-2.2266 1.6465c-0.099931 0.01925-0.19234 0.07506-0.25391 0.16602-0.1231 0.18186-0.076431 0.42964 0.10547 0.55274 0.47438 0.3211 1.3132 0.5598 2.1895 0.62305 0.14856 0.0107 0.31262 0.01758 0.48828 0.01758 0.76264 0 1.7313-0.07272 2.7676-0.55469 0.19909-0.0927 0.28597-0.32822 0.19336-0.52734-0.0926-0.1992-0.33016-0.28584-0.5293-0.19336-1.1203 0.52119-2.1615 0.51537-2.8613 0.46484-0.8347-0.0602-1.5057-0.28859-1.8008-0.48828-0.09092-0.06155-0.1989-0.0798-0.29883-0.06055z" fill="#ee923a"/>
</svg>
