<svg width="16" height="16" version="1.1" xmlns="http://www.w3.org/2000/svg">
<defs>
<style id="current-color-scheme" type="text/css">.ColorScheme-Text { color:#444444; } .ColorScheme-Highlight { color:#4285f4; } .ColorScheme-NeutralText { color:#ff9800; } .ColorScheme-PositiveText { color:#4caf50; } .ColorScheme-NegativeText { color:#f44336; }</style>
</defs>
<path class="ColorScheme-Text" d="m9 3a3 3 0 0 0-2.959 2.5352 2.5 2.5 0 0 0-1.541-0.53516 2.5 2.5 0 0 0-2.4551 2.043 2.5 2.5 0 0 0-2.0449 2.457 2.5 2.5 0 0 0 2.5 2.5 2.5 2.5 0 0 0 0.6582-0.091797c-0.093666-0.28876-0.1582-0.59005-0.1582-0.9082 0-1.2633 0.90171-2.151 2.0176-2.5898 0.050967-1.878 1.593-3.4102 3.4824-3.4102 1.3883 9.908e-4 2.4056 0.94657 2.9668 2.1465 0.11896-0.022666 0.23137-0.067717 0.3457-0.10352a3 3 0 0 0 0.1875-1.043 3 3 0 0 0-3-3zm-0.5 3c-1.3807 0-2.5 1.1193-2.5 2.5 0.0012426 0.16873 0.019565 0.33691 0.054688 0.50195-0.018219-9.004e-4 -0.03645-0.0015515-0.054688-0.0019531-1.1046 0-2 0.89543-2 2 0 1.1046 0.89543 2 2 2h8.5c0.82843 0 1.5-0.67157 1.5-1.5s-0.67157-1.5-1.5-1.5c-0.17188 8.57e-4 -0.34232 0.03125-0.50391 0.08984 0.001975-0.029911 0.003278-0.059867 0.003906-0.08984 0-1.1046-0.89543-2-2-2-0.35591 7.808e-4 -0.70516 0.096522-1.0117 0.27734-0.11522-1.2886-1.1945-2.2764-2.4883-2.2773z" fill="#ee923a"/>
</svg>
