<svg width="16" height="16" version="1.1" xmlns="http://www.w3.org/2000/svg">
<defs>
<style id="current-color-scheme" type="text/css">.ColorScheme-Text { color:#666666; } .ColorScheme-Highlight { color:#4285f4; }</style>
</defs>
<path class="ColorScheme-Text" d="m4.545 5.452c-0.046 0.011-0.092 0.029-0.135 0.052-0.43 0.227-0.54 0.936-0.246 1.592 0.237 0.528 0.657 0.854 1.039 0.844 0.287 1.753 1.43 3.06 2.79 3.06h0.012c1.361 0 2.504-1.307 2.791-3.06 0.381 0.01 0.802-0.316 1.039-0.844 0.294-0.656 0.184-1.365-0.246-1.592-0.044-0.023-0.089-0.041-0.135-0.052-0.055-1.917-1.578-3.452-3.454-3.452-1.875 0-3.4 1.535-3.455 3.452zm5.849 5.548c-0.289 0.701-1.274 1.227-2.449 1.227-1.17 0-2.146-0.519-2.44-1.215-2.468 0.258-4.267 0.89-4.483 1.637-3e-3 7e-3 2e-3 0.016 0 0.023-7e-3 0.027-7e-3 0.051-0.01 0.078-1e-3 0.013-0.012 0.021-0.012 0.034v1.859c1e-3 0.197 0.157 0.357 0.351 0.357h13.299c0.194 0 0.35-0.16 0.35-0.357v-1.872c-2e-3 -0.043-0.021-0.08-0.033-0.123-0.221-0.756-2.059-1.396-4.572-1.648z" fill="#e25252"/>
</svg>
