<svg width="16" height="16" version="1.1" xmlns="http://www.w3.org/2000/svg">
<path d="m8.5 0c-3.05 0-5.5 2.68-5.5 6v4c0 3.32 2.45 6 5.5 6 0.16885 0 0.33514-0.011262 0.5-0.027344v-2.2617l-1 1v-5.6211l-2.4297 2.041-0.64062-0.76172 2.8203-2.3691-2.8203-2.3691 0.64062-0.76172 2.4297 2.041v-5.6211l4.2402 4.2402-2.9395 2.4707 1.375 1.1562c0.54687-0.6956 1.378-1.1562 2.3242-1.1562 0.35286 0 0.6862 0.074546 1 0.18945v-2.1895c0-3.32-2.45-6-5.5-6zm0.5 3.7109v3.2383l1.7598-1.4785-1.7598-1.7598zm0 5.3398v1.9492h1.0117c0.003706-0.33272 0.074143-0.64817 0.17773-0.94922l-1.1895-1z" fill="#666"/>
<path d="m13 9c-1.108 0-2 0.9093-2 2.0293v0.9707h-1v4h6v-4h-1v-0.9707c0-1.12-0.892-2.0293-2-2.0293zm0 1c0.554 0 1 0.442 1 1v1h-2v-1c0-0.558 0.446-1 1-1z" color="#666666" fill="#666"/>
</svg>
