<svg width="16" height="16" version="1.1" xmlns="http://www.w3.org/2000/svg">
<path d="m8 1c-3.87 0-7 3.13-7 7s3.13 7 7 7 7-3.13 7-7-3.13-7-7-7zm-0.5 1.94c0.07-0.01 0.15 0 0.22 0 0.01 0.03-0.05 0.14-0.13 0.31-0.48 1.06-0.51 2.3-0.06 2.97 0.08 0.12 0.16 0.23 0.16 0.25 0 0.01-0.09 0.03-0.19 0.03-0.23 0-0.45-0.14-0.91-0.5-0.2-0.16-0.46-0.29-0.56-0.31-0.16-0.03-0.2-0.02-0.41 0.18-0.19 0.2-0.25 0.3-0.25 0.47 0 0.67 0.79 1.19 2.25 1.5 1.99 0.42 2.48 0.8 2.54 1.85 0.07 1.31-0.63 2.3-2.16 3.06-0.18 0.09-0.3 0.13-0.38 0.16-0.03-0.01-0.05 0-0.09 0-0.01-0.04-0.03-0.14-0.03-0.32 0-0.69-0.27-1.41-0.69-1.81-0.11-0.11-0.42-0.33-0.68-0.5-0.27-0.16-0.54-0.35-0.6-0.44-0.1-0.13-0.11-0.21-0.03-0.47 0.14-0.45 0.3-0.71 0.63-1 0.16-0.15 0.33-0.27 0.37-0.28 0.04 0-0.22-0.08-0.59-0.15-0.38-0.08-0.94-0.24-1.22-0.35-0.53-0.19-1.23-0.58-1.5-0.87l-0.03-0.03c0.38-1.54 1.47-2.8 2.9-3.41 0.3-0.13 0.61-0.21 0.94-0.28 0.16-0.03 0.33-0.05 0.5-0.06zm4.69 2.34c0.11 0.07 0.56 1.03 0.68 1.5 0.17 0.61 0.16 1.65 0 2.25-0.05 0.23-0.13 0.44-0.15 0.47-0.03 0.03-0.12-0.13-0.22-0.31-0.1-0.19-0.44-0.58-0.72-0.88-0.8-0.85-0.93-1.29-0.59-1.97 0.17-0.34 0.91-1.11 1-1.06z" fill="#666"/>
</svg>
