<svg width="16" height="16" version="1.1" xmlns="http://www.w3.org/2000/svg">
<path d="m8.0039 0.99414c-3.0506 0-5.9194 1.0732-8 3l8 11 1-1.375v-2.625h1.0117c0.01822-1.6359 1.3445-3 2.9883-3 0.02881 0 0.05537 0.00893 0.08398 0.00977l2.916-4.0098c-2.081-1.9269-4.949-3-8-3z" fill="#666" opacity=".35"/>
<path d="m8.0039 8.9941a7 7 0 0 0-3.623 1.0176l3.623 4.9824 1-1.375v-2.625h1.0117c0.006283-0.56412 0.17638-1.0902 0.45312-1.5449a7 7 0 0 0-2.4648-0.45508z" fill="#666"/>
<path d="m13.004 8.9941c-1.108 0-2 0.9093-2 2.0293v0.9707h-1v4h6v-4h-1v-0.9707c0-1.12-0.892-2.0293-2-2.0293zm0 1c0.554 0 1 0.442 1 1v1h-2v-1c0-0.558 0.446-1 1-1z" color="#666666" fill="#666"/>
</svg>
