<svg width="16" height="16" version="1.1" xmlns="http://www.w3.org/2000/svg">
<path d="m8 1c-3.0506 0-5.9194 1.0732-8 3l8 11 1-1.375v-2.625h1.0117c0.018221-1.6359 1.3445-3 2.9883-3 0.02881 0 0.055374 0.0089256 0.083984 0.0097656l2.916-4.0098c-2.081-1.9269-4.949-3-8-3zm0 3c1.11 0 2 0.9 2 2 0 1.11-0.89 2-2 2v1h-1v-2h1c0.56 0 1-0.44 1-1 0-0.55-0.44-1-1-1-0.55 0-1 0.45-1 1h-1c0-1.1 0.9-2 2-2zm-1 6h1v1h-1v-1z" fill="#666"/>
<path d="m13 9c-1.108 0-2 0.9093-2 2.0293v0.9707h-1v4h6v-4h-1v-0.9707c0-1.12-0.892-2.0293-2-2.0293zm0 1c0.554 0 1 0.442 1 1v1h-2v-1c0-0.558 0.446-1 1-1z" color="#666666" fill="#666"/>
</svg>
