<svg width="16" height="16" enable-background="new" version="1.1" xmlns="http://www.w3.org/2000/svg">
<title>Pop Symbolic Icon Theme</title>
<g transform="translate(-325.02 355)" fill="#666">
<path d="m333-354c-3.8542 0-7 3.1458-7 7s3.1458 7 7 7 7-3.1458 7-7-3.1458-7-7-7zm0 2c2.7733 0 5 2.2267 5 5s-2.2267 5-5 5-5-2.2267-5-5 2.2267-5 5-5z" color="#000000" color-rendering="auto" dominant-baseline="auto" enable-background="new" image-rendering="auto" shape-rendering="auto" solid-color="#000000" style="font-feature-settings:normal;font-variant-alternates:normal;font-variant-caps:normal;font-variant-ligatures:normal;font-variant-numeric:normal;font-variant-position:normal;isolation:auto;mix-blend-mode:normal;shape-padding:0;text-decoration-color:#000000;text-decoration-line:none;text-decoration-style:solid;text-indent:0;text-orientation:mixed;text-transform:none;white-space:normal"/>
<path d="m336-347.5c0-0.27614-0.22386-0.5-0.5-0.5h-2.5c-0.55228 0-1 0.44772-1 1 0 0.55229 0.44772 1 1 1l2.5-0.99992c0.27614 0 0.5-0.22386 0.5-0.5z"/>
</g>
</svg>
