<svg width="16" height="16" version="1.1" xmlns="http://www.w3.org/2000/svg">
<defs>
<style id="current-color-scheme" type="text/css">.ColorScheme-Text { color:#666666; } .ColorScheme-Highlight { color:#4285f4; } .ColorScheme-NeutralText { color:#ff9800; } .ColorScheme-PositiveText { color:#4caf50; } .ColorScheme-NegativeText { color:#f44336; }</style>
</defs>
<path class="ColorScheme-Text" d="m8 0c-2.84 0-5.14 2.31-5.14 5.16 0 1.68 0.79 3.16 2.04 4.1 0.57 0.43 1.05 0.99 1.05 1.76l0.05 0.98h4l0.06-0.98c0.04-0.77 0.47-1.33 1.04-1.76 1.25-0.94 2.04-2.42 2.04-4.1 0-2.85-2.3-5.16-5.14-5.16zm0 2.06c1.7 0 3.09 1.39 3.09 3.1 0 0.97-0.45 1.87-1.23 2.45-1.16 0.88-1.6 1.86-1.76 2.68h-0.2c-0.16-0.82-0.6-1.8-1.76-2.68-0.78-0.58-1.23-1.48-1.23-2.45 0-1.71 1.39-3.1 3.09-3.1zm-2 10.94v1h4v-1zm1 2v1h2v-1z" fill="#666"/>
</svg>
