<svg width="16" height="16" version="1.1" xmlns="http://www.w3.org/2000/svg">
<defs>
<style id="current-color-scheme" type="text/css">.ColorScheme-Text { color:#666666; } .ColorScheme-Highlight { color:#4285f4; }</style>
</defs>
<path d="m14.5 11c-0.25 0-0.4437-0.0015-0.63281 0.01953-0.18911 0.02101-0.41535 0.0716-0.5957 0.25195s-0.23094 0.4066-0.25195 0.5957c-0.02101 0.18911-0.01953 0.38281-0.01953 0.63281v2c0 0.25-0.0015 0.4437 0.01953 0.63281 0.02101 0.18911 0.0716 0.41535 0.25195 0.5957s0.4066 0.23094 0.5957 0.25195c0.18911 0.02101 0.38281 0.01953 0.63281 0.01953s0.4437 0.0015 0.63281-0.01953c0.18911-0.02101 0.41535-0.0716 0.5957-0.25195s0.23094-0.4066 0.25195-0.5957c0.02101-0.18911 0.01953-0.38281 0.01953-0.63281v-1.5h-1v1.5c0 0.23322-0.0031 0.39131-0.01172 0.48828-0.09697 0.0086-0.25506 0.01172-0.48828 0.01172s-0.39131-0.0031-0.48828-0.01172c-0.0086-0.09698-0.01172-0.25506-0.01172-0.48828v-2c0-0.23322 0.0031-0.39131 0.01172-0.48828 0.09697-0.0086 0.25506-0.01172 0.48828-0.01172h1.5v-1z" color="#666666" color-rendering="auto" dominant-baseline="auto" fill="#666" image-rendering="auto" shape-rendering="auto" solid-color="#000000" style="font-feature-settings:normal;font-variant-alternates:normal;font-variant-caps:normal;font-variant-ligatures:normal;font-variant-numeric:normal;font-variant-position:normal;isolation:auto;mix-blend-mode:normal;shape-padding:0;text-decoration-color:#000000;text-decoration-line:none;text-decoration-style:solid;text-indent:0;text-orientation:mixed;text-transform:none;white-space:normal"/>
<path d="m9 11v1h2v1h-2v1h2v1h-2v1h2.5a0.50005 0.50005 0 0 0 0.5-0.5v-4a0.50005 0.50005 0 0 0-0.5-0.5z" color="#666666" color-rendering="auto" dominant-baseline="auto" fill="#666" image-rendering="auto" shape-rendering="auto" solid-color="#000000" style="font-feature-settings:normal;font-variant-alternates:normal;font-variant-caps:normal;font-variant-ligatures:normal;font-variant-numeric:normal;font-variant-position:normal;isolation:auto;mix-blend-mode:normal;shape-padding:0;text-decoration-color:#000000;text-decoration-line:none;text-decoration-style:solid;text-indent:0;text-orientation:mixed;text-transform:none;white-space:normal"/>
</svg>
