<svg width="64" height="64" version="1.1" xmlns="http://www.w3.org/2000/svg">
 <rect x="4" y="7" width="56" height="52" rx="2.8" ry="2.8" opacity=".2"/>
 <path d="m4 13v42.2c0 1.55 1.2496 2.8 2.8 2.8h50.4c1.55 0 2.8-1.25 2.8-2.8v-42.2l-1-1h-54z" fill="#57b8ec"/>
 <path d="m6.8 6c-1.55 0-2.8 1.25-2.8 2.8v4.2h56v-4.2c0-1.55-1.25-2.8-2.8-2.8z" fill="#106796"/>
 <path d="m20.8 51c-1.55 0-2.8 1.25-2.8 2.8v4.2h26v-4.2c0-1.55-1.25-2.8-2.8-2.8z" fill="#106796"/>
 <path d="m6.8 6c-1.55 0-2.8 1.25-2.8 2.8v1c0-1.55 1.25-2.8 2.8-2.8h50.4c1.55 0 2.8 1.25 2.8 2.8v-1c0-1.55-1.25-2.8-2.8-2.8z" fill="#fff" opacity=".1"/>
</svg>
