<svg width="64" height="64" version="1.1" xmlns="http://www.w3.org/2000/svg">
<path d="m4 52.222v2c0 1.54 1.2496 2.778 2.8008 2.778h50.399c1.55 0 2.8-1.238 2.8-2.778v-2c0 1.54-1.25 2.778-2.8 2.778h-50.399c-1.5504 0-2.8-1.238-2.8-2.778z" opacity=".2"/>
<path d="m6.8008 6.0004c-1.5512 0-2.8008 1.2384-2.8008 2.7774v41.223h55.999v-41.221c0-1.539-1.25-2.7774-2.8-2.7774h-50.399z" fill="#57b8ec"/>
<path d="m6.8 56c-1.5512 0-2.8-1.238-2.8-2.778v-3.222h55.999v3.2222c0 1.54-1.248 2.778-2.8 2.778z" fill="#106796"/>
<path d="m6.8008 6c-1.5512 0-2.8008 1.2384-2.8008 2.7773v1c0-1.539 1.2496-2.7773 2.8008-2.7773h50.398c1.55 0 2.8008 1.2384 2.8008 2.7773v-1c0-1.539-1.2508-2.7773-2.8008-2.7773h-50.398z" fill="#fff" opacity=".1"/>
</svg>
