<svg width="64" height="64" version="1.1" xmlns="http://www.w3.org/2000/svg">
 <rect x="4" y="47" width="56" height="11" rx="2.8" ry="2.75" opacity=".2"/>
 <path d="m6.8 7c-1.5512 0-2.8 1.2488-2.8 2.8v43.4c0 1.5512 1.2488 2.8 2.8 2.8h50.4c1.5512 0 2.8-1.2488 2.8-2.8v-43.4c0-1.5512-1.2488-2.8-2.8-2.8z" fill="#57b8ec"/>
 <rect x="4" y="45" width="56" height="11" rx="2.8" ry="2.75" opacity=".1"/>
 <path d="m15 17.75v19.125c0 1.1772 0.94775 2.125 2.125 2.125h29.75c1.1772 0 2.125-0.94775 2.125-2.125v-19.125z" opacity=".2"/>
 <rect x="4" y="46" width="56" height="11" rx="2.8" ry="2.75" fill="#106796"/>
 <rect x="25" y="46" width="14" height="11" rx="2.8" ry="2.75" fill="#fff" opacity=".35"/>
 <rect x="8" y="46" width="14" height="11" rx="2.8" ry="2.75" fill="#fff" opacity=".35"/>
 <rect x="42" y="46" width="14" height="11" rx="2.8" ry="2.75" fill="#fff" opacity=".35"/>
 <path d="m32 50a7 7 0 0 0-6.7758 5.2992c0.42609 1.0008 1.4159 1.7008 2.5758 1.7008h8.4c1.1599 0 2.1497-0.70002 2.5758-1.7008a7 7 0 0 0-6.7758-5.2992z" fill="#fff" opacity=".2"/>
 <path d="m32 54a3 3 0 0 0-3 3h6a3 3 0 0 0-3-3z" fill="#57b8ec" opacity=".2"/>
 <path d="m15 16.75v19.125c0 1.1772 0.94775 2.125 2.125 2.125h29.75c1.1772 0 2.125-0.94775 2.125-2.125v-19.125z" fill="#fff"/>
 <path d="m17.125 12h29.75c1.1772 0 2.125 0.94775 2.125 2.125v2.875h-34v-2.875c0-1.1772 0.94775-2.125 2.125-2.125z" fill="#106796"/>
 <path d="m6.8008 7c-1.5512 0-2.8008 1.2496-2.8008 2.8008v1c0-1.5512 1.2496-2.8008 2.8008-2.8008h50.398c1.5512 0 2.8008 1.2496 2.8008 2.8008v-1c0-1.5512-1.2496-2.8008-2.8008-2.8008h-50.398z" fill="#fff" opacity=".2"/>
 <path d="m32 50a7 7 0 0 0-6.7754 5.2988c0.055495 0.13034 0.12156 0.25574 0.19531 0.375a7 7 0 0 1 6.5801-4.6738 7 7 0 0 1 6.584 4.668c0.072219-0.11744 0.13685-0.241 0.19141-0.36914a7 7 0 0 0-6.7754-5.2988z" fill="#fff"/>
 <path d="m32 54a3 3 0 0 0-3 3h0.17383a3 3 0 0 1 2.8262-2 3 3 0 0 1 2.8242 2h0.17578a3 3 0 0 0-3-3z" fill="#fff"/>
</svg>
