<svg width="64" height="64" version="1" xmlns="http://www.w3.org/2000/svg">
 <circle cx="32" cy="33" r="29" opacity=".2"/>
 <circle cx="32" cy="32" r="29" fill="#3f51b5"/>
 <path d="M 32,3 A 29,29 0 0 0 3,32 29,29 0 0 0 3.0175781,32.488281 29,29 0 0 1 32,4 29,29 0 0 1 60.974609,32.494141 29,29 0 0 0 60.999999,32 29,29 0 0 0 32,3 Z" fill="#fff" opacity=".2"/>
 <path d="m22 13-10 13h7v24.059c-0.05464 3.9209 6.0546 3.9209 6 0v-24.059h7zm20 0c-1.5137 0-3.0273 0.98095-3 2.9414v24.059h-7l10 13 10-13h-7v-24.059c0.02732-1.9605-1.4863-2.9414-3-2.9414z" opacity=".2"/>
 <path d="m22 12-10 13h7v24.059c-0.05464 3.9209 6.0546 3.9209 6 0v-24.059h7l-10-13zm20 0c-1.5137 0-3.0273 0.98095-3 2.9414v24.059h-7l10 13 10-13h-7v-24.059c0.02732-1.9605-1.4863-2.9414-3-2.9414z" fill="#fff"/>
</svg>
