<svg width="64" height="64" version="1" xmlns="http://www.w3.org/2000/svg">
 <rect x="4" y="22" width="56" height="39" rx="2.8" ry="2.8" opacity=".2"/>
 <rect x="13" y="3" width="38" height="34" rx="2.125" ry="2.125" fill="#5294e2"/>
 <rect x="10" y="9" width="44" height="34" rx="2.125" ry="2.125" fill="#89e058"/>
 <rect x="7" y="15" width="50" height="34" rx="2.125" ry="2.125" fill="#ffcd54"/>
 <rect x="4" y="21" width="56" height="39" rx="2.8" ry="2.8" fill="#57b8ec"/>
 <rect x="22" y="38" width="20" height="5" rx="1.429" ry="1.25" opacity=".2"/>
 <rect x="22" y="37" width="20" height="5" rx="1.429" ry="1.25" fill="#ececec"/>
 <path d="m15.125 3c-1.1772 0-2.125 0.94775-2.125 2.125v1c0-1.1772 0.94775-2.125 2.125-2.125h33.75c1.1772 0 2.125 0.94775 2.125 2.125v-1c0-1.1772-0.94775-2.125-2.125-2.125h-33.75z" fill="#fff" opacity=".1"/>
 <path d="m12.125 9c-1.1772 0-2.125 0.94775-2.125 2.125v1c0-1.1772 0.94775-2.125 2.125-2.125h39.75c1.1772 0 2.125 0.94775 2.125 2.125v-1c0-1.1772-0.94775-2.125-2.125-2.125h-39.75z" fill="#fff" opacity=".1"/>
 <path d="m9.125 15c-1.1772 0-2.125 0.94775-2.125 2.125v1c0-1.1772 0.94775-2.125 2.125-2.125h45.75c1.1772 0 2.125 0.94775 2.125 2.125v-1c0-1.1772-0.94775-2.125-2.125-2.125h-45.75z" fill="#fff" opacity=".1"/>
 <path d="m12.125 8c-1.1772 0-2.125 0.94775-2.125 2.125v1c0-1.1772 0.94775-2.125 2.125-2.125h39.75c1.1772 0 2.125 0.94775 2.125 2.125v-1c0-1.1772-0.94775-2.125-2.125-2.125z" opacity=".1"/>
 <path d="m9.125 14c-1.1772 0-2.125 0.94775-2.125 2.125v1c0-1.1772 0.94775-2.125 2.125-2.125h45.75c1.1772 0 2.125 0.94775 2.125 2.125v-1c0-1.1772-0.94775-2.125-2.125-2.125z" opacity=".1"/>
</svg>
