<svg width="64" height="64" version="1.1" xmlns="http://www.w3.org/2000/svg">
<path d="m6.8 9c-1.5512 0-2.8 1.2388-2.8 2.7778v42.444c0 1.5388 1.2488 2.7778 2.8 2.7778h50.4c1.5512 0 2.8-1.239 2.8-2.7778v-42.444c0-1.538-1.248-2.7768-2.8-2.7768z" fill="#57b8ec"/>
<path d="m6.8 7.0001c-1.5512 0-2.8 1.2388-2.8 2.7778v3.2222h56v-3.2222c0-1.539-1.248-2.7778-2.8-2.7778z" fill="#106796"/>
<path d="m6.8008 7c-1.5512 0-2.8008 1.2384-2.8008 2.7773v1c0-1.539 1.2496-2.7773 2.8008-2.7773h50.398c1.55 0 2.8008 1.2384 2.8008 2.7773v-1c0-1.539-1.2508-2.7773-2.8008-2.7773h-50.398z" fill="#fff" opacity=".1"/>
<path d="m4 54.223v1c0 1.54 1.2496 2.7773 2.8008 2.7773h50.398c1.55 0 2.8008-1.2374 2.8008-2.7773v-1c0 1.54-1.2508 2.7773-2.8008 2.7773h-50.398c-1.5512 0-2.8008-1.2374-2.8008-2.7773z" opacity=".2"/>
</svg>
