<svg width="64" height="64" version="1" xmlns="http://www.w3.org/2000/svg">
<rect transform="matrix(0,-1,-1,0,0,0)" x="-52" y="-60" width="44" height="56" rx="3" ry="3" opacity=".2"/>
<rect transform="matrix(0,-1,-1,0,0,0)" x="-51" y="-60" width="44" height="56" rx="3" ry="3" fill="#57b8ec"/>
<path d="m60 48v-38c0-1.662-1.338-3-3-3h-25v44h25c1.662 0 3-1.338 3-3z" fill="#fff" opacity=".2"/>
<path d="m60 29v-19c0-1.662-1.338-3-3-3h-50c-1.662 0-3 1.338-3 3v19z" fill="#fff" opacity=".1"/>
<path d="m7 7c-1.662 0-3 1.338-3 3v1c0-1.662 1.338-3 3-3h50c1.662 0 3 1.338 3 3v-1c0-1.662-1.338-3-3-3h-50z" fill="#fff" opacity=".1"/>
<rect transform="matrix(0,-1,-1,0,0,0)" x="-30" y="-32" width="24" height="30" rx="1" ry="1" opacity=".2"/>
<rect transform="matrix(0,-1,-1,0,0,0)" x="-29" y="-32" width="24" height="30" rx="1" ry="1" fill="#ebebeb"/>
</svg>
