<svg width="64" height="64" version="1.1" xmlns="http://www.w3.org/2000/svg">
 <path d="m6.8 57c-1.5512 0-2.8-1.248-2.8-2.8v-9.1999h56v9.1999c0 1.5512-1.2488 2.8-2.8 2.8z" fill="#106796"/>
 <path d="m6.8008 7.0019c-1.5512 0-2.8008 1.2496-2.8008 2.8008v35.197h55.999v-35.199c0-1.5512-1.25-2.8008-2.8-2.8008h-50.399z" fill="#57b8ec"/>
 <rect x="6" y="47" width="24" height="8" rx="1.916" ry="2.058" fill="#fff" opacity=".2"/>
 <rect x="32" y="47" width="24" height="8" rx="1.916" ry="2.058" fill="#fff" opacity=".2"/>
 <path d="m6.8008 7c-1.5512 0-2.8008 1.2493-2.8008 2.8002v0.99979c0-1.5509 1.2496-2.8002 2.8008-2.8002h50.398c1.55 0 2.8008 1.2493 2.8008 2.8002v-0.99979c0-1.5509-1.2508-2.8002-2.8008-2.8002h-50.398z" fill="#fff" opacity=".1"/>
 <rect x="8" y="49" width="4" height="4" fill="#fff"/>
 <rect x="34" y="49" width="4" height="4" fill="#fff"/>
 <path d="m4 54.199v1c0 1.55 1.2496 2.8008 2.8008 2.8008h50.398c1.55 0 2.8008-1.2508 2.8008-2.8008v-1c0 1.55-1.2508 2.8008-2.8008 2.8008h-50.398c-1.5512 0-2.8008-1.2508-2.8008-2.8008z" opacity=".2"/>
</svg>
