<svg width="64" height="64" version="1" xmlns="http://www.w3.org/2000/svg">
 <rect x="8" y="3" width="48" height="34" rx="2.5" ry="2.5" fill="#5895dc"/>
 <rect x="8" y="8" width="48" height="34" rx="2.5" ry="2.5" opacity=".1"/>
 <rect x="8" y="9" width="48" height="34" rx="2.5" ry="2.5" fill="#89e058"/>
 <rect x="8" y="14" width="48" height="34" rx="2.5" ry="2.5" opacity=".1"/>
 <rect x="8" y="15" width="48" height="34" rx="2.5" ry="2.5" fill="#ffcd54"/>
 <rect x="4" y="22" width="56" height="40" rx="3" ry="3" opacity=".2"/>
 <rect x="4" y="21" width="56" height="40" rx="3" ry="3" fill="#57b8ec"/>
 <rect x="22" y="38" width="20" height="6" rx="2" ry="2" opacity=".2"/>
 <rect x="22" y="37" width="20" height="6" rx="2" ry="2" fill="#ececec"/>
 <path d="m10.5 3c-1.385 0-2.5 1.115-2.5 2.5v1c0-1.385 1.115-2.5 2.5-2.5h43c1.385 0 2.5 1.115 2.5 2.5v-1c0-1.385-1.115-2.5-2.5-2.5z" fill="#fff" opacity=".1"/>
 <path d="m10.5 9c-1.385 0-2.5 1.115-2.5 2.5v1c0-1.385 1.115-2.5 2.5-2.5h43c1.385 0 2.5 1.115 2.5 2.5v-1c0-1.385-1.115-2.5-2.5-2.5z" fill="#fff" opacity=".1"/>
 <path d="m10.5 15c-1.385 0-2.5 1.115-2.5 2.5v1c0-1.385 1.115-2.5 2.5-2.5h43c1.385 0 2.5 1.115 2.5 2.5v-1c0-1.385-1.115-2.5-2.5-2.5z" fill="#fff" opacity=".1"/>
 <circle cx="48" cy="47" r="16" opacity=".2"/>
 <circle cx="48" cy="46" r="16" fill="#6ec149"/>
 <path d="m46 38-0.1764 2.1072a6.2858 6.2858 0 0 0-1.837 1.0625l-1.9152-0.9018-2 3.4642 1.7388 1.2076a6.2858 6.2858 0 0 0-0.096 1.0603 6.2858 6.2858 0 0 0 0.0914 1.0647l-1.7344 1.2031 2 3.4642 1.9107-0.89956a6.2858 6.2858 0 0 0 1.8415 1.0558l0.1764 2.1116h4l0.1764-2.1072a6.2858 6.2858 0 0 0 1.8371-1.0625l1.9152 0.9018 2-3.4642-1.7388-1.2076a6.2858 6.2858 0 0 0 0.096-1.0603 6.2858 6.2858 0 0 0-0.0914-1.0647l1.7344-1.2031-2-3.4642-1.9107 0.89956a6.2858 6.2858 0 0 0-1.842-1.056l-0.176-2.112h-4zm2 5.7144a2.2858 2.2858 0 0 1 2.286 2.286 2.2858 2.2858 0 0 1-2.286 2.286 2.2858 2.2858 0 0 1-2.286-2.286 2.2858 2.2858 0 0 1 2.286-2.286z" fill="#fff"/>
</svg>
