<svg width="64" height="64" version="1" xmlns="http://www.w3.org/2000/svg">
 <path d="m4 50.25v2c0 1.524 1.2496 2.75 2.8008 2.75h50.399c1.55 0 2.8-1.226 2.8-2.75v-2c0 1.524-1.25 2.75-2.8 2.75h-50.399c-1.5504 0-2.8-1.226-2.8-2.75z" opacity=".2"/>
 <path d="m6.8 10.001s-2.8 0-2.8 2.75v38.499c0 1.524 1.2488 2.75 2.8 2.75h50.399c1.552 0 2.8-1.226 2.8-2.75v-38.499c0-1.5236-1.248-2.75-2.8-2.75h-50.399z" fill="#57b8ec"/>
 <path d="m59.999 40c-3.6897-0.06752-7.2515 1.6034-9.8847 4.1892-2.634 2.588-4.1159 6.1219-4.1159 9.8119h11.2c0.1983 0 0.43199-0.04504 0.65897-0.08326 1.23-0.29 2.142-1.366 2.142-2.666v-11.252z" fill="#fff" fill-rule="evenodd" opacity=".4"/>
 <path d="m4 24c3.6897 0.068 7.2515-1.6035 9.8847-4.1889 2.6324-2.5854 4.1151-6.1203 4.1151-9.8101h-11.2c-0.1983 0-0.43199 0.04503-0.65897 0.08325-1.2298 0.2906-2.141 1.3674-2.141 2.6668v11.249z" fill="#fff" fill-rule="evenodd" opacity=".4"/>
 <path d="m6.8008 10s-2.8008 4e-5 -2.8008 2.75v1.002c0-2.75 2.8008-2.75 2.8008-2.75h50.398c1.55 0 2.8008 1.2264 2.8008 2.75v-1.002c0-1.5236-1.2508-2.75-2.8008-2.75h-50.398z" fill="#fff" opacity=".1"/>
</svg>
