<svg width="64" height="64" version="1" xmlns="http://www.w3.org/2000/svg">
 <rect x="4" y="9" width="56" height="48" rx="3" ry="3" opacity=".2"/>
 <rect x="4" y="8" width="56" height="48" rx="3" ry="3" fill="#57b8ec"/>
 <path d="m7 8c-1.662 0-3 1.338-3 3v1c0-1.662 1.338-3 3-3h50c1.66 0 3 1.338 3 3v-1c0-1.662-1.34-3-3-3z" fill="#fff" opacity=".2"/>
 <rect x="36" y="14" width="28" height="20" rx="1.2" ry="1.2" opacity=".2"/>
 <rect x="36" y="13" width="28" height="20" rx="1.2" ry="1.2" fill="#ebebeb"/>
 <rect x="18" y="40" width="28" height="20" rx="1.2" ry="1.2" opacity=".2"/>
 <rect x="18" y="39" width="28" height="20" rx="1.2" ry="1.2" fill="#ebebeb"/>
 <rect y="14" width="28" height="20" rx="1.2" ry="1.2" opacity=".2"/>
 <rect y="13" width="28" height="20" rx="1.2" ry="1.2" fill="#ebebeb"/>
</svg>
