<svg width="64" height="64" version="1.1" xmlns="http://www.w3.org/2000/svg">
<path d="m6.7998 57c-1.5512 0-2.8-1.2388-2.8-2.7778v-3.2222h56v3.2222c0 1.539-1.2488 2.7778-2.8 2.7778z" fill="#106796"/>
<path d="m6.801 7c-1.5512 0-2.8008 1.2384-2.8008 2.7773v41.223h56v-41.221c0-1.539-1.25-2.7773-2.8-2.7773h-50.4z" fill="#57b8ec"/>
<path d="m6.8008 7c-1.5512 0-2.8008 1.2383-2.8008 2.7773v1c0-1.539 1.2496-2.7773 2.8008-2.7773h50.398c1.55 0 2.8008 1.2383 2.8008 2.7773v-1c0-1.539-1.2508-2.7773-2.8008-2.7773h-50.398z" fill="#fff" opacity=".1"/>
<rect x="20" y="24" width="24" height="16" rx="1.5" ry="1.334" opacity=".2"/>
<path d="m20 27v10.668c0 0.738 0.668 1.332 1.5 1.332h21c0.832 0 1.5-0.594 1.5-1.332v-10.668h-24z" fill="#fff"/>
<path d="m21.5 23h21c0.832 0 1.5 0.594 1.5 1.334v2.666h-24v-2.6666c0-0.73866 0.669-1.3333 1.5-1.3333z" fill="#106796"/>
<rect x="6" y="34" width="6" height="6" rx=".75" ry=".75" opacity=".2"/>
<rect x="6" y="10" width="6" height="6" rx=".75" ry=".75" opacity=".2"/>
<rect x="6" y="9" width="6" height="6" rx=".75" ry=".75" fill="#fff"/>
<rect x="6" y="18" width="6" height="6" rx=".75" ry=".75" opacity=".2"/>
<rect x="6" y="17" width="6" height="6" rx=".75" ry=".75" fill="#fff"/>
<rect x="6" y="26" width="6" height="6" rx=".75" ry=".75" opacity=".2"/>
<rect x="6" y="25" width="6" height="6" rx=".75" ry=".75" fill="#fff"/>
<rect x="6" y="33" width="6" height="6" rx=".75" ry=".75" fill="#fff"/>
<path d="m4 54.223v1c0 1.54 1.2496 2.7773 2.8008 2.7773h50.4c1.55 0 2.7988-1.2373 2.7988-2.7773v-1c0 1.54-1.2488 2.7773-2.7988 2.7773h-50.4c-1.5512 0-2.8008-1.2373-2.8008-2.7773z" opacity=".2"/>
</svg>
