<svg width="64" height="64" version="1" xmlns="http://www.w3.org/2000/svg">
 <circle cx="32" cy="33" r="29" opacity=".2"/>
 <circle cx="32" cy="32" r="29" fill="#ff5722"/>
 <path d="m32 3a29 29 0 0 0-29 29 29 29 0 0 0 0.01758 0.48828 29 29 0 0 1 28.982-28.488 29 29 0 0 1 28.975 28.494 29 29 0 0 0 0.02539-0.49414 29 29 0 0 0-29-29z" fill="#fff" opacity=".2"/>
 <path d="m32 10c-7.0173 0-13 5.352-13 12v6h-2.8333c-1.7543 0-3.1667 1.338-3.1667 3v18c0 1.662 1.4123 3 3.1667 3h31.667c1.7543 0 3.1667-1.338 3.1667-3v-18c0-1.662-1.4123-3-3.1667-3h-2.8333v-6c0-6.648-5.9827-12-13-12zm0 6c3.5087 0 7.3671 2.6963 7 6v6h-14v-6c0-3.324 3.4913-6 7-6z" opacity=".2"/>
 <path d="m32 9c-7.0173 0-13 5.352-13 12v6h-2.8333c-1.7543 0-3.1667 1.338-3.1667 3v18c0 1.662 1.4123 3 3.1667 3h31.667c1.7543 0 3.1667-1.338 3.1667-3v-18c0-1.662-1.4123-3-3.1667-3h-2.8333v-6c0-6.648-5.9827-12-13-12zm0 6c3.5087 0 7.3671 2.6963 7 6v6h-14v-6c0-3.324 3.4913-6 7-6z" fill="#fff"/>
</svg>
