<svg width="64" height="64" version="1" xmlns="http://www.w3.org/2000/svg">
 <rect x="8" y="3" width="48" height="34" rx="2.5" ry="2.5" fill="#5895dc"/>
 <rect x="8" y="8" width="48" height="34" rx="2.5" ry="2.5" opacity=".1"/>
 <rect x="8" y="9" width="48" height="34" rx="2.5" ry="2.5" fill="#89e058"/>
 <rect x="8" y="14" width="48" height="34" rx="2.5" ry="2.5" opacity=".1"/>
 <rect x="8" y="15" width="48" height="34" rx="2.5" ry="2.5" fill="#ffcd54"/>
 <rect x="4" y="22" width="56" height="40" rx="3" ry="3" opacity=".2"/>
 <rect x="4" y="21" width="56" height="40" rx="3" ry="3" fill="#57b8ec"/>
 <rect x="22" y="38" width="20" height="6" rx="2" ry="2" opacity=".2"/>
 <rect x="22" y="37" width="20" height="6" rx="2" ry="2" fill="#ececec"/>
 <path d="m10.5 3c-1.385 0-2.5 1.115-2.5 2.5v1c0-1.385 1.115-2.5 2.5-2.5h43c1.385 0 2.5 1.115 2.5 2.5v-1c0-1.385-1.115-2.5-2.5-2.5h-43z" fill="#fff" opacity=".1"/>
 <path d="m10.5 9c-1.385 0-2.5 1.115-2.5 2.5v1c0-1.385 1.115-2.5 2.5-2.5h43c1.385 0 2.5 1.115 2.5 2.5v-1c0-1.385-1.115-2.5-2.5-2.5z" fill="#fff" opacity=".1"/>
 <path d="m10.5 15c-1.385 0-2.5 1.115-2.5 2.5v1c0-1.385 1.115-2.5 2.5-2.5h43c1.385 0 2.5 1.115 2.5 2.5v-1c0-1.385-1.115-2.5-2.5-2.5z" fill="#fff" opacity=".1"/>
 <g transform="translate(15,1)">
  <circle cx="32" cy="47" r="16" opacity=".2"/>
  <circle cx="32" cy="46" r="16" fill="#48aeff"/>
  <rect x="24" y="38" width="7" height="7" rx=".5" ry=".5" fill="#fff"/>
  <rect x="33" y="38" width="7" height="7" rx=".5" ry=".5" fill="#fff"/>
  <rect x="33" y="47" width="7" height="7" rx=".5" ry=".5" fill="#fff"/>
  <rect x="24" y="47" width="7" height="7" rx=".5" ry=".5" fill="#fff"/>
 </g>
</svg>
