<svg width="64" height="64" version="1.1" xmlns="http://www.w3.org/2000/svg">
<path d="m6.8008 7.0019c-1.5512 0-2.8008 1.2496-2.8008 2.8008v35.197h56v-35.199c0-1.5512-1.25-2.8008-2.8-2.8008h-50.4z" fill="#57b8ec"/>
<path d="m6.8 57c-1.5512 0-2.8-1.248-2.8-2.8v-9.1999h56v9.1999c0 1.5512-1.2488 2.8-2.8 2.8z" fill="#106796"/>
<circle cx="35" cy="51" r="3" opacity=".2"/>
<circle cx="44.999" cy="51" r="3" opacity=".2"/>
<circle cx="54.999" cy="51" r="3" opacity=".2"/>
<circle cx="35" cy="50" r="3" fill="#fff" opacity=".72"/>
<circle cx="44.999" cy="50" r="3" fill="#fff" opacity=".72"/>
<circle cx="54.999" cy="50" r="3" fill="#fff" opacity=".72"/>
<path d="m6.8008 7c-1.5512 0-2.8008 1.2493-2.8008 2.8002v0.99979c0-1.5509 1.2496-2.8002 2.8008-2.8002h50.398c1.55 0 2.8008 1.2493 2.8008 2.8002v-0.99979c0-1.5509-1.2508-2.8002-2.8008-2.8002h-50.398z" fill="#fff" opacity=".1"/>
<path d="m4 54.2v0.9998c0 1.5497 1.2496 2.8002 2.8008 2.8002h50.398c1.55 0 2.8008-1.2505 2.8008-2.8002v-0.9998c0 1.5497-1.2508 2.8002-2.8008 2.8002h-50.398c-1.5512 0-2.8008-1.2505-2.8008-2.8002z" opacity=".2"/>
</svg>
