<svg width="48" height="48" version="1" xmlns="http://www.w3.org/2000/svg">
 <rect x="6" y="4" width="36" height="24" rx="1.5" ry="1.5" fill="#5294e2"/>
 <rect x="6" y="7" width="36" height="24" rx="1.5" ry="1.5" opacity=".1"/>
 <rect x="6" y="8" width="36" height="24" rx="1.5" ry="1.5" fill="#89e058"/>
 <rect x="6" y="11" width="36" height="24" rx="1.5" ry="1.5" opacity=".1"/>
 <rect x="6" y="12" width="36" height="24" rx="1.5" ry="1.5" fill="#ffcd54"/>
 <rect x="4" y="17" width="40" height="28" rx="2" ry="2" opacity=".2"/>
 <rect x="4" y="16" width="40" height="28" rx="2" ry="2" fill="#57b8ec"/>
 <rect x="17" y="28" width="14" height="4" rx="1" ry="1" opacity=".2"/>
 <rect x="17" y="27" width="14" height="4" rx="1" ry="1" fill="#ececec"/>
 <path d="m7.5 4c-0.831 0-1.5 0.669-1.5 1.5v1c0-0.831 0.669-1.5 1.5-1.5h33c0.831 0 1.5 0.669 1.5 1.5v-1c0-0.831-0.669-1.5-1.5-1.5z" fill="#fff" opacity=".1"/>
 <path d="m7.5 8c-0.831 0-1.5 0.669-1.5 1.5v1c0-0.831 0.669-1.5 1.5-1.5h33c0.831 0 1.5 0.669 1.5 1.5v-1c0-0.831-0.669-1.5-1.5-1.5z" fill="#fff" opacity=".1"/>
 <path d="m7.5 12c-0.831 0-1.5 0.669-1.5 1.5v1c0-0.831 0.669-1.5 1.5-1.5h33c0.831 0 1.5 0.669 1.5 1.5v-1c0-0.831-0.669-1.5-1.5-1.5z" fill="#fff" opacity=".1"/>
 <circle cx="36" cy="37" r="11" opacity=".2"/>
 <circle cx="36" cy="36" r="11" fill="#6ec149"/>
 <path d="m34.488 29.999-0.13345 1.5804a4.7567 4.7143 0 0 0-1.3902 0.79689l-1.4493-0.67635-1.5135 2.5982 1.3159 0.9057a4.7567 4.7143 0 0 0-0.07265 0.7952 4.7567 4.7143 0 0 0 0.06922 0.79855l-1.314 0.903 1.5135 2.5982 1.4459-0.67466a4.7567 4.7143 0 0 0 1.393 0.792l0.133 1.584h3.027l0.13344-1.5804a4.7567 4.7143 0 0 0 1.3902-0.79688l1.4493 0.67634 1.5135-2.5982-1.3159-0.9057a4.7567 4.7143 0 0 0 0.07265-0.79519 4.7567 4.7143 0 0 0-0.06922-0.79855l1.313-0.901-1.5135-2.5982-1.446 0.67467a4.7567 4.7143 0 0 0-1.393-0.792l-0.13344-1.5837h-3.027zm1.5135 4.2857a1.7297 1.7143 0 0 1 1.7297 1.7143 1.7297 1.7143 0 0 1-1.7297 1.7143 1.7297 1.7143 0 0 1-1.7297-1.7143 1.7297 1.7143 0 0 1 1.7297-1.7143z" fill="#fff"/>
</svg>
