<svg width="48" height="48" version="1" xmlns="http://www.w3.org/2000/svg">
<rect x="4" y="6" width="40" height="36" rx="2" ry="2" opacity=".2"/>
<rect x="4" y="5" width="40" height="36" rx="2" ry="2" fill="#57b8ec"/>
<rect x="26" y="10" width="20" height="15" rx="1" ry="1" opacity=".2"/>
<rect x="26" y="9" width="20" height="15" rx="1" ry="1" fill="#ebebeb"/>
<rect x="2" y="10" width="20" height="15" rx="1" ry="1" opacity=".2"/>
<rect x="2" y="9" width="20" height="15" rx="1" ry="1" fill="#ebebeb"/>
<rect x="14" y="29" width="20" height="15" rx="1" ry="1" opacity=".2"/>
<rect x="14" y="28" width="20" height="15" rx="1" ry="1" fill="#ebebeb"/>
<path d="m6 5c-1.108 0-2 0.892-2 2v1c0-1.108 0.892-2 2-2h36c1.108 0 2 0.892 2 2v-1c0-1.108-0.892-2-2-2h-36z" fill="#fff" opacity=".2"/>
</svg>
