<svg width="48" height="48" version="1" xmlns="http://www.w3.org/2000/svg">
 <circle cx="24" cy="25" r="20" opacity=".2"/>
 <circle cx="24" cy="24" r="20" fill="#ff5722"/>
 <path d="m24 4a20 20 0 0 0-20 20 20 20 0 0 0 0.0215 0.582 20 20 0 0 1 19.978-19.582 20 20 0 0 1 19.979 19.418 20 20 0 0 0 0.021-0.418 20 20 0 0 0-20-20z" fill="#fff" opacity=".2"/>
 <path d="m24 10c-4.432 0-8 3.568-8 8v4h-2c-1.108 0-2 0.892-2 2v12c0 1.108 0.892 2 2 2h20c1.108 0 2-0.892 2-2v-12c0-1.108-0.892-2-2-2h-2v-4c0-4.432-3.568-8-8-8zm0 4c2.216 0 4 1.784 4 4v4h-8v-4c0-2.216 1.784-4 4-4z" opacity=".2"/>
 <path d="m24 9c-4.432 0-8 3.568-8 8v4h-2c-1.108 0-2 0.892-2 2v12c0 1.108 0.892 2 2 2h20c1.108 0 2-0.892 2-2v-12c0-1.108-0.892-2-2-2h-2v-4c0-4.432-3.568-8-8-8zm0 4c2.216 0 4 1.784 4 4v4h-8v-4c0-2.216 1.784-4 4-4z" fill="#fff"/>
</svg>
