<svg width="48" height="48" version="1" xmlns="http://www.w3.org/2000/svg">
 <rect x="10" y="4" width="28" height="24" rx="1.5" ry="1.5" fill="#5294e2"/>
 <rect x="8" y="8" width="32" height="24" rx="1.5" ry="1.5" fill="#89e058"/>
 <rect x="6" y="12" width="36" height="24" rx="1.5" ry="1.5" fill="#ffcd54"/>
 <rect x="4" y="17" width="40" height="28" rx="2" ry="2" opacity=".2"/>
 <rect x="4" y="16" width="40" height="28" rx="2" ry="2" fill="#57b8ec"/>
 <rect x="17" y="28" width="14" height="4" rx="1" ry="1" opacity=".2"/>
 <rect x="17" y="27" width="14" height="4" rx="1" ry="1" fill="#ececec"/>
 <path d="m11.5 4c-0.831 0-1.5 0.669-1.5 1.5v1c0-0.831 0.669-1.5 1.5-1.5h25c0.831 0 1.5 0.669 1.5 1.5v-1c0-0.831-0.669-1.5-1.5-1.5h-25z" fill="#fff" opacity=".1"/>
 <path d="m9.5 8c-0.831 0-1.5 0.669-1.5 1.5v1c0-0.831 0.669-1.5 1.5-1.5h29c0.831 0 1.5 0.669 1.5 1.5v-1c0-0.831-0.669-1.5-1.5-1.5h-29z" fill="#fff" opacity=".1"/>
 <path d="m7.5 12c-0.831 0-1.5 0.669-1.5 1.5v1c0-0.831 0.669-1.5 1.5-1.5h33c0.831 0 1.5 0.669 1.5 1.5v-1c0-0.831-0.669-1.5-1.5-1.5h-33z" fill="#fff" opacity=".1"/>
 <path d="m9.5 7c-0.831 0-1.5 0.669-1.5 1.5v1c0-0.831 0.669-1.5 1.5-1.5h29c0.831 0 1.5 0.669 1.5 1.5v-1c0-0.831-0.669-1.5-1.5-1.5z" opacity=".1"/>
 <path d="m7.5 11c-0.831 0-1.5 0.669-1.5 1.5v1c0-0.831 0.669-1.5 1.5-1.5h33c0.831 0 1.5 0.669 1.5 1.5v-1c0-0.831-0.669-1.5-1.5-1.5z" opacity=".1"/>
</svg>
