<svg width="48" height="48" version="1" xmlns="http://www.w3.org/2000/svg">
 <circle cx="24" cy="25" r="20" opacity=".2"/>
 <circle cx="24" cy="24" r="20" fill="#3f51b5"/>
 <path d="m24 4a20 20 0 0 0-20 20 20 20 0 0 0 0.0215 0.582 20 20 0 0 1 19.978-19.582 20 20 0 0 1 19.979 19.418 20 20 0 0 0 0.021-0.418 20 20 0 0 0-20-20z" fill="#fff" opacity=".2"/>
 <path d="m17 11-7 9h5v16.977c-0.03825 2.6974 4.0382 2.6974 4 0v-16.977h5zm14.029 0c-1.1273-0.016474-2.0456 0.89909-2.0293 2.0234v16.977h-5l7 9 7-9h-5v-16.977c0.01593-1.1015-0.86631-2.0073-1.9707-2.0234z" opacity=".2"/>
 <path d="m17 10-7 9h5v16.977c-0.03825 2.6974 4.0382 2.6974 4 0v-16.977h5l-7-9zm14.029 0c-1.1273-0.016474-2.0456 0.89909-2.0293 2.0234v16.977h-5l7 9 7-9h-5v-16.977c0.01593-1.1015-0.86631-2.0073-1.9707-2.0234z" fill="#fff"/>
</svg>
