<svg width="48" height="48" version="1.1" xmlns="http://www.w3.org/2000/svg">
<path d="m6 6c-1.108 0-2 0.892-2 2v26.1h40v-26.1c0-1.108-0.892-2-2-2z" fill="#57b8ec"/>
<path d="m6 42c-1.108 0-2-0.892-2-2v-6h40v6c0 1.108-0.892 2-2 2z" fill="#542233"/>
<path d="m6 6c-1.108 0-2 0.892-2 2v1c0-1.108 0.892-2 2-2h36c1.108 0 2 0.892 2 2v-1c0-1.108-0.892-2-2-2z" fill="#fff" opacity=".1"/>
<circle cx="26" cy="39" r="2" opacity=".2"/>
<circle cx="26" cy="38" r="2" fill="#fff" opacity=".72"/>
<circle cx="32" cy="39" r="2" opacity=".2"/>
<circle cx="32" cy="38" r="2" fill="#fff" opacity=".72"/>
<circle cx="38" cy="39" r="2" opacity=".2"/>
<circle cx="38" cy="38" r="2" fill="#fff" opacity=".72"/>
<path d="m4 40v1c0 1.108 0.892 2 2 2h36c1.108 0 2-0.892 2-2v-1c0 1.108-0.892 2-2 2h-36c-1.108 0-2-0.892-2-2z" opacity=".2"/>
</svg>
