<svg enable-background="new 0 0 16 16" version="1.1" viewBox="0 0 16 16" xml:space="preserve" xmlns="http://www.w3.org/2000/svg">
<path d="m8.805 15h-1.6c-0.11 0-0.2-0.09-0.2-0.2v-6.6c0-0.11 0.09-0.2 0.2-0.2h1.6c0.11 0 0.2 0.09 0.2 0.2v6.6c0 0.11-0.089 0.2-0.2 0.2z" fill="#666"/><path d="m6.005 11-2.858-2.859c-0.078-0.078-0.078-0.205 0-0.283l4.717-4.717c0.078-0.078 0.205-0.078 0.283 0l4.717 4.717c0.078 0.078 0.078 0.205 0 0.283l-2.859 2.859v2l4.859-4.859c0.078-0.078 0.078-0.205 0-0.283l-6.717-6.717c-0.078-0.078-0.205-0.078-0.283 0l-6.717 6.718c-0.078 0.078-0.078 0.205 0 0.283l4.858 4.858z" fill="#666"/>
</svg>
